<svg width="1920" height="796" viewBox="0 0 1920 796" fill="none" xmlns="http://www.w3.org/2000/svg">
<g clip-path="url(#clip0_5_51)">
<path d="M2147.87 460.337C1967.64 460.337 2064.98 483.189 1786.04 467.218C1694.3 462.619 1651.13 480.244 1514.68 399.802C1428.91 347.795 1377.84 305.67 1299.84 271.711C1107.01 194.915 1100.84 324.092 723.158 415.278C622.137 439.199 558.948 450.335 474.398 483.835C374.651 525.381 310.136 569.504 191.714 550.919C78.4832 529.178 1.45867 468.28 -113.584 439.929C-248.316 410.926 -368.969 460.337 -565.876 460.337" stroke="#3DDEED" stroke-opacity="0.05" stroke-width="0.5" stroke-linecap="round" stroke-linejoin="round"/>
<path d="M2147.87 460.337C2003.42 460.717 2021.06 482.302 1853.9 476.091C1682.4 468.588 1654.35 481.892 1537.29 416.552C1455.46 369.066 1401.3 323.458 1322.45 283.723C1120.17 188.227 1115.11 311.525 723.163 417.282C619.994 444.529 556.619 458.448 474.403 491.133C372.704 533.355 309.039 575.003 191.719 555.284C78.2192 532.268 1.60873 470.991 -113.579 442.114C-247.452 412.743 -366.024 460.289 -565.871 460.343" stroke="#3DDEED" stroke-opacity="0.05" stroke-width="0.5" stroke-linecap="round" stroke-linejoin="round"/>
<path d="M2147.87 460.337C2005.07 460.802 2022.31 484.33 1853.9 480.781C1682.94 475.934 1655.09 484.644 1548.58 426.668C1465.71 379.358 1413.99 334.456 1333.76 291.262C1130.72 188.155 1127.82 299.35 711.853 422.612C596.33 456.015 534.119 472.759 451.789 507.937C341.431 556.183 276.508 584.281 157.801 551.3C44.3938 516.472 -31.7974 456.069 -147.497 437.823C-267.99 422.926 -384.663 460.349 -565.871 460.337" stroke="#3DDEED" stroke-opacity="0.05" stroke-width="0.5" stroke-linecap="round" stroke-linejoin="round"/>
<path d="M2147.87 460.337C2010.11 460.76 2030.75 483.014 1876.51 485.465C1825.39 485.725 1803.61 483.847 1752.13 482.876C1680.05 482.127 1643.8 481.173 1559.9 436.778C1478.21 391.291 1426.5 345.592 1345.06 299.224C1193.76 217.104 1131.13 258.619 1005.84 313.396C793.692 404.848 736.797 415.182 576.164 468.546C357.29 542.324 302.6 617.117 101.258 534.616C-16.2485 484.487 -80.4572 438.1 -204.04 435.97C-330.853 436.314 -391.428 460.361 -565.876 460.337" stroke="#3DDEED" stroke-opacity="0.05" stroke-width="0.5" stroke-linecap="round" stroke-linejoin="round"/>
<path d="M2147.87 460.337C1980.16 461.055 2085.06 491.954 1740.82 488.423C1559.14 487.131 1480.31 370.473 1322.45 289.095C1153.1 207.41 1118.63 278.484 768.391 407.075C501.008 503.567 677.164 433.338 395.251 545.898C135.368 645.281 41.5366 454.054 -181.421 438.493C-299.553 433.223 -386.066 460.367 -565.871 460.337" stroke="#3DDEED" stroke-opacity="0.05" stroke-width="0.5" stroke-linecap="round" stroke-linejoin="round"/>
<path d="M2147.87 460.337C1984.86 461.2 2061.96 499.438 1718.2 493.789C1558.83 486.901 1459.72 357.55 1311.13 285.371C1172.95 223.091 1109.18 268.343 926.69 343.993C687.117 442.488 658.204 448.017 497.012 511.269C403.817 548.402 364.604 570.096 293.48 579.228C140.766 593.015 44.9891 497.676 -102.274 453.86C-237.094 417.801 -334.693 460.391 -565.876 460.343" stroke="#3DDEED" stroke-opacity="0.05" stroke-width="0.5" stroke-linecap="round" stroke-linejoin="round"/>
<path d="M2147.87 460.337C1991.2 461.381 2035.05 505.987 1718.2 499.04C1564.36 491.441 1466.52 367.6 1322.44 291.902C1211.86 237.578 1150.48 252.456 1051.06 291.099C185.917 631.567 355.861 653.049 -34.4319 480.606C-213.419 404.691 -288.006 460.518 -565.876 460.343" stroke="#3DDEED" stroke-opacity="0.05" stroke-width="0.5" stroke-linecap="round" stroke-linejoin="round"/>
<path d="M2147.87 460.337C2030.96 461.297 2024.77 489.618 1876.51 502.36C1690.4 515.681 1643 495.968 1582.51 464.677C1407.67 368.245 1300.4 208.17 1096.31 273.329C907.181 338.409 654.798 467.948 406.555 562.949C193.753 641.218 113.483 539.324 -68.3505 468.962C-221.012 413.715 -289.771 460.645 -565.871 460.343" stroke="#3DDEED" stroke-opacity="0.05" stroke-width="0.5" stroke-linecap="round" stroke-linejoin="round"/>
<path d="M2147.87 460.337C2032.84 461.442 2016.31 494.217 1865.19 507.49C1600.98 526.848 1602.77 478.97 1378.99 327.774C1206.25 215.087 1134.26 238.423 791.005 399.295C370.727 599.286 304.867 626.261 157.796 575.263C43.2914 532.425 -31.6058 470.061 -147.502 449.05C-262.006 432.155 -350.574 460.669 -565.876 460.337" stroke="#3DDEED" stroke-opacity="0.05" stroke-width="0.5" stroke-linecap="round" stroke-linejoin="round"/>
<path d="M2147.87 460.337C2035.19 461.593 2014.62 496.306 1865.19 511.806C1603.16 534.997 1597.14 478.463 1378.99 329.205C1224.18 226.942 1143.55 229.375 836.233 377.191C574.782 504.581 383.771 623.678 225.638 598.314C40.4342 561.803 -15.1409 437.147 -260.578 446.044C-383.027 451.657 -401.35 460.669 -565.876 460.343" stroke="#3DDEED" stroke-opacity="0.05" stroke-width="0.5" stroke-linecap="round" stroke-linejoin="round"/>
<path d="M2147.87 460.337C2037.06 461.743 2013.83 498.304 1865.19 516.104C1605.41 543.006 1589.42 476.423 1378.99 330.569C1230.86 231.536 1140.19 224.015 836.233 376.195C633.064 479.127 421.856 617.612 259.561 607.845C78.39 589.906 -8.77434 448.132 -226.654 446.605C-344.932 447.553 -370.594 460.808 -565.876 460.331" stroke="#3DDEED" stroke-opacity="0.05" stroke-width="0.5" stroke-linecap="round" stroke-linejoin="round"/>
<path d="M2147.87 460.337C2025.55 462.136 1977.85 522.574 1774.75 525.707C1592.2 526.8 1553.84 454.12 1378.99 330.895C1243.53 238.821 1169.81 240.228 1017.16 293.405C770.922 382.092 620.31 528.942 383.941 600.004C138.059 667.777 37.8358 464.442 -192.731 448.512C-298.244 443.623 -357.132 461.019 -565.871 460.331" stroke="#3DDEED" stroke-opacity="0.05" stroke-width="0.5" stroke-linecap="round" stroke-linejoin="round"/>
<path d="M2147.87 460.337C2036.38 462.226 2016.95 501.515 1865.19 523.999C1600.55 558.428 1581.97 471.473 1367.67 323.398C1273.21 260.581 1205.28 241.018 1096.31 266.351C765.079 350.228 540.087 625.501 282.176 620.696C98.7991 610.097 -1.1397 458.743 -204.04 449.025C-305.413 446.201 -359.114 461.097 -565.876 460.343" stroke="#3DDEED" stroke-opacity="0.05" stroke-width="0.5" stroke-linecap="round" stroke-linejoin="round"/>
<path d="M2147.87 460.337C2041.88 462.353 2010.49 504.382 1865.19 527.94C1603.48 565.484 1578.99 471.95 1367.67 323.591C1273.53 259.965 1206.06 240.24 1096.31 263.907C764.923 342.158 564.544 626.46 293.48 627.064C112.919 620.394 5.67714 469.995 -181.426 451.434C-284.362 443.937 -331.893 461.152 -565.876 460.337" stroke="#3DDEED" stroke-opacity="0.05" stroke-width="0.5" stroke-linecap="round" stroke-linejoin="round"/>
<path d="M2147.87 460.337C2036.74 462.697 2008.09 509.506 1853.9 533.657C1592.66 569.323 1567.89 461.224 1356.38 316.034C1252.57 248.08 1186.16 241.791 1084.99 263.949C761.895 340.661 582.763 627.04 304.79 633.408C118.654 630.48 10.3563 471.95 -181.426 452.502C-281.194 445.066 -324.15 461.303 -565.876 460.343" stroke="#3DDEED" stroke-opacity="0.05" stroke-width="0.5" stroke-linecap="round" stroke-linejoin="round"/>
<path d="M2147.87 460.337C2041.53 462.83 2003.44 512.319 1853.9 537.713C1705.27 559.805 1646.68 532.932 1582.51 492.563C1404.44 373.865 1320.53 217.997 1096.31 258.873C882.823 302.024 752.542 435.426 587.473 542.427C307.347 718.884 187.138 620.297 10.8014 521.337C-180.189 416.28 -200.117 461.586 -565.871 460.337" stroke="#3DDEED" stroke-opacity="0.05" stroke-width="0.5" stroke-linecap="round" stroke-linejoin="round"/>
<path d="M2147.87 460.337C2043.81 463.095 2000.96 514.655 1853.9 541.262C1705.79 564.772 1646.3 536.174 1582.51 495.032C1403.54 372.857 1322.38 216.596 1096.31 254.328C882.699 294.292 753.841 437.153 587.473 549.972C312.636 730.666 181.072 619.791 10.8014 522.544C-177.963 417.004 -200.2 461.774 -565.871 460.337" stroke="#3DDEED" stroke-opacity="0.05" stroke-width="0.5" stroke-linecap="round" stroke-linejoin="round"/>
<path d="M2147.87 460.337C2044.76 463.391 1999.77 516.798 1853.9 544.817C1708.24 569.408 1647.42 540.387 1582.51 497.507C1404.29 372.941 1323.83 215.317 1096.31 249.783C882.849 286.512 754.556 439.187 587.473 557.523C312.108 746.094 170.606 614.594 -0.508258 517.335C-176.592 419.974 -198.709 462.003 -565.871 460.337" stroke="#3DDEED" stroke-opacity="0.05" stroke-width="0.5" stroke-linecap="round" stroke-linejoin="round"/>
<path d="M2147.87 460.337C2045.35 463.687 1999.12 518.88 1853.9 548.366C1708.28 574.466 1646.75 543.423 1582.51 499.976C1400.28 369.646 1325.42 214.055 1096.31 245.237C766.352 297.105 629.13 666.37 316.099 659.785C202.32 652.916 127.573 593.956 10.8014 524.971C-172.171 419.316 -190.836 462.232 -565.871 460.337" stroke="#3DDEED" stroke-opacity="0.05" stroke-width="0.5" stroke-linecap="round" stroke-linejoin="round"/>
<path d="M2147.87 460.337C2040.28 464.188 1994.03 525.387 1842.58 554.058C1706.11 576.554 1645.59 548.596 1571.21 494.181C1390.65 356.089 1318.34 209.166 1084.99 242.298C762.713 295.536 623.017 691.716 304.784 665.543C191.202 651.679 116.522 588.192 -0.513439 519.55C-172.171 421.761 -190.784 462.456 -565.871 460.337" stroke="#3DDEED" stroke-opacity="0.05" stroke-width="0.5" stroke-linecap="round" stroke-linejoin="round"/>
<path d="M2147.87 460.337C2040.89 464.514 1993.52 527.566 1842.58 557.662C1708.9 580.913 1647.76 553.642 1571.21 496.39C1390.04 354.767 1319.67 207.482 1084.99 237.397C874.427 269.333 740.648 462.643 576.158 588.868C323.765 774.216 161.864 617.28 -0.513439 520.57C-170.593 422.262 -190.479 462.679 -565.871 460.337" stroke="#3DDEED" stroke-opacity="0.05" stroke-width="0.5" stroke-linecap="round" stroke-linejoin="round"/>
<path d="M2147.87 460.337C2041.38 464.912 1992.4 529.6 1842.58 560.674C1709.5 584.818 1647.77 556.473 1571.21 497.893C1390.6 353.463 1320.03 203.559 1084.99 230.823C763.696 276.474 644.591 708.538 316.094 679.384C197.428 664.047 119.565 593.401 -0.513439 520.884C-168.3 422.66 -186.633 462.963 -565.871 460.337" stroke="#3DDEED" stroke-opacity="0.05" stroke-width="0.5" stroke-linecap="round" stroke-linejoin="round"/>
<path d="M2147.87 460.337C2042.68 465.287 1990.89 531.689 1842.58 563.692C1711.1 588.518 1649.01 560.281 1571.21 499.402C1391.09 352.135 1320.47 199.635 1084.99 224.256C764.017 266.726 649.115 723.525 316.094 685.656C202.568 668.145 127.184 601.29 10.7962 528.115C-165.365 420.276 -184.335 463.277 -565.871 460.337" stroke="#3DDEED" stroke-opacity="0.05" stroke-width="0.5" stroke-linecap="round" stroke-linejoin="round"/>
<path d="M2147.87 460.337C2042.81 465.715 1990.4 533.596 1842.58 566.71C1711.17 592.508 1648.37 562.629 1571.21 500.905C1390.77 350.143 1320.98 195.712 1084.99 217.689C880.359 242.769 738.774 476.006 576.158 613.555C336.467 806.177 146.962 612.994 -0.513439 521.506C-166.954 421.586 -184.361 463.566 -565.871 460.337" stroke="#3DDEED" stroke-opacity="0.05" stroke-width="0.5" stroke-linecap="round" stroke-linejoin="round"/>
<path d="M2147.87 460.337C2049.13 465.781 1994.04 530.53 1853.9 567.096C1715.48 599.238 1650.73 564.489 1582.51 511.643C1404.74 366.338 1331.24 197.124 1096.31 210.192C888.615 227.19 755.306 458.671 587.473 611.92C350.887 818.237 167.014 627.106 -0.508258 521.814C-164.671 422.057 -180.406 463.24 -565.871 460.337" stroke="#3DDEED" stroke-opacity="0.05" stroke-width="0.5" stroke-linecap="round" stroke-linejoin="round"/>
<path d="M2147.87 460.337C2047.02 466.313 1975.67 544.564 1831.28 575.04C1703.77 598.067 1641.96 565.485 1559.9 493.97C1383.08 333.816 1308.68 181.141 1073.69 205.599C873.423 234.137 727.319 501.605 564.854 639.607C336.627 821.653 143.152 610.344 -11.8179 515.09C-166.203 423.958 -180.815 463.5 -565.871 460.337" stroke="#3DDEED" stroke-opacity="0.05" stroke-width="0.5" stroke-linecap="round" stroke-linejoin="round"/>
<path d="M2147.87 460.337C2047.78 466.747 1983.85 540.103 1842.58 575.003C1714.27 602.896 1649.43 571.382 1571.21 504.666C1390.23 343.558 1320.59 181.437 1084.99 196.853C884.231 217.091 741.383 486.588 576.158 638.206C350.463 833.828 152.537 619.917 -0.513439 521.723C-163.315 420.988 -180.976 463.826 -565.871 460.337" stroke="#3DDEED" stroke-opacity="0.05" stroke-width="0.5" stroke-linecap="round" stroke-linejoin="round"/>
<path d="M2147.87 460.337C2048.55 467.152 1982.78 541.733 1842.58 577.357C1710.71 606.861 1646.04 570.675 1571.21 505.511C1394.97 345.303 1314.67 166.884 1073.69 190.394C882.445 217.683 738.598 494.103 576.164 646.415C351.162 845.357 152.63 616.827 -11.8127 514.377C-166.012 422.328 -181.405 464.152 -565.871 460.337" stroke="#3DDEED" stroke-opacity="0.05" stroke-width="0.5" stroke-linecap="round" stroke-linejoin="round"/>
<path d="M2147.87 460.337C2047.9 467.677 1983.04 543.079 1842.58 579.705C1713.32 609.445 1648.37 574.931 1571.21 506.35C1395.55 343.371 1313.51 160.093 1073.69 182.795C879.691 210.44 728.044 517.715 564.854 664.819C350.033 845.357 150.394 615.752 -11.8179 514.021C-165.453 421.779 -179.309 464.502 -565.871 460.337" stroke="#3DDEED" stroke-opacity="0.05" stroke-width="0.5" stroke-linecap="round" stroke-linejoin="round"/>
<path d="M2147.87 460.337C2050.58 467.93 1979.73 545.336 1842.58 582.053C1710.21 613.32 1645.27 574.345 1571.21 507.182C1397.21 342.472 1312.55 153.351 1073.69 175.183C881.855 202.52 727.889 523.431 564.854 673.209C352.968 854.254 150.083 615.879 -11.8179 513.653C-165.665 420.795 -180.572 464.816 -565.871 460.337" stroke="#3DDEED" stroke-opacity="0.05" stroke-width="0.5" stroke-linecap="round" stroke-linejoin="round"/>
<path d="M2147.87 460.337C2047.05 468.691 1982.79 545.837 1842.58 584.311C1710.4 616.374 1645.3 576.476 1571.21 507.943C1399.76 342.454 1311.71 146.355 1073.69 167.662C878.874 195.688 718.587 548.252 553.55 691.323C342.373 859.336 137.547 598.936 -34.4319 499.891C-173.341 424.392 -189.775 465.087 -565.876 460.331" stroke="#3DDEED" stroke-opacity="0.05" stroke-width="0.5" stroke-linecap="round" stroke-linejoin="round"/>
<path d="M2147.87 460.337C2047.27 469.156 1982.02 546.881 1842.58 586.025C1710.31 618.855 1645.43 578.233 1571.21 508.245C1400.95 340.709 1310.14 138.086 1073.69 160.588C885.835 189.38 729.364 534.489 564.854 689.283C360.121 867.503 157.961 620.104 -11.8179 512.675C-165.655 419.739 -183.802 465.631 -565.871 460.337" stroke="#3DDEED" stroke-opacity="0.05" stroke-width="0.5" stroke-linecap="round" stroke-linejoin="round"/>
<path d="M2147.87 460.337C2048.63 469.512 1979.65 548.421 1842.58 587.745C1705.96 622.446 1641.5 576.09 1571.21 508.547C1402.35 339.23 1308.71 129.817 1073.69 153.514C887.75 183.761 731.046 539.644 564.854 697.045C359.661 876.436 155.756 612.915 -23.1276 505.281C-168.802 422.183 -186.763 466.107 -565.871 460.337" stroke="#3DDEED" stroke-opacity="0.05" stroke-width="0.5" stroke-linecap="round" stroke-linejoin="round"/>
<path d="M2147.87 460.337C2047.11 470.134 1970.34 556.237 1831.28 592.393C1596.17 645.22 1535.35 432.825 1333.76 241.272C1277.41 190.37 1230.1 159.405 1152.83 147.774C1120.12 143.977 1094.78 142.806 1062.38 148.383C875.752 194.366 708.37 591.246 542.245 723.749C341.855 866.772 136.227 589.466 -45.7312 492.249C-181.473 424.519 -247.938 466.234 -452.795 463.892C-508.686 462.764 -505.197 461.333 -565.871 460.337" stroke="#3DDEED" stroke-opacity="0.05" stroke-width="0.5" stroke-linecap="round" stroke-linejoin="round"/>
<path d="M2147.87 460.337C2048.75 470.465 1978.15 550.642 1842.58 591.174C1714.24 625.271 1649.24 586.924 1571.21 509.15C1403.84 335.041 1306.09 113.344 1073.69 139.366C892.197 172.298 732.785 551.426 564.854 712.57C369.562 884.711 172.485 626.581 -11.8179 510.901C-164.262 419.847 -178.553 467.158 -565.871 460.337" stroke="#3DDEED" stroke-opacity="0.05" stroke-width="0.5" stroke-linecap="round" stroke-linejoin="round"/>
<path d="M2147.87 460.337C2050.94 470.689 1974.84 552.404 1842.58 592.791C1605.98 657.027 1545.96 449.883 1345.06 242.895C1271.19 169.896 1190.32 118.777 1073.69 132.696C971.38 152.416 881.301 282.745 802.31 397.979C613.266 676.324 533.612 868.716 282.17 727.395C94.8964 615.903 1.62432 451.241 -215.35 453.728C-291.577 455.888 -341.888 465.003 -441.496 464.453C-499.064 463.614 -502.154 461.55 -565.876 460.343" stroke="#3DDEED" stroke-opacity="0.05" stroke-width="0.5" stroke-linecap="round" stroke-linejoin="round"/>
<path d="M2147.87 460.337C2048.8 471.341 1975.85 552.416 1842.58 593.908C1712.84 629.865 1648.49 588.916 1571.21 509.211C1407.84 333.345 1303.18 96.872 1073.69 127.903C896.674 165.532 735.544 563.831 564.854 726.453C368.522 897.363 165.642 607.157 -34.4372 496.964C-171.747 425.974 -182.259 468.335 -565.881 460.331" stroke="#3DDEED" stroke-opacity="0.05" stroke-width="0.5" stroke-linecap="round" stroke-linejoin="round"/>
<path d="M2147.87 460.337C2048.92 471.739 1974.6 553.135 1842.58 595.025C1713.85 631.446 1649.5 591.132 1571.21 509.048C1409.87 332.524 1301.83 88.633 1073.69 123.117C894.309 164.771 727.651 593.027 553.55 742.533C366.063 886.734 156.745 600.029 -34.4319 496.662C-171.089 427.411 -179.242 469.125 -565.876 460.331" stroke="#3DDEED" stroke-opacity="0.05" stroke-width="0.5" stroke-linecap="round" stroke-linejoin="round"/>
<path d="M2147.87 460.337C2048.54 472.186 1973.9 553.69 1842.58 596.141C1713.43 633.414 1649.46 592.248 1571.21 508.891C1413.56 333.641 1301.16 80.3334 1073.69 118.336C897.569 162.725 727.759 601.26 553.55 748.774C365.779 890.621 155.27 590.618 -45.7364 490.753C-182.099 427.821 -246.287 470.079 -452.8 465.136C-508.334 463.319 -508.639 461.737 -565.876 460.337" stroke="#3DDEED" stroke-opacity="0.05" stroke-width="0.5" stroke-linecap="round" stroke-linejoin="round"/>
<path d="M2147.87 460.337C2048.14 472.662 1961.89 562.11 1831.28 600.584C1596.5 660.956 1540.53 429.674 1333.76 213.458C1278.94 159.001 1231.14 123.575 1152.83 112.083C1119.6 108.528 1094.74 107.833 1062.38 116.628C889.593 180.664 716.03 634.518 542.245 763.393C361.436 879.762 153.013 587.305 -45.7312 490.565C-182.316 428.865 -245.982 471.039 -452.795 465.419C-509.058 463.415 -508.888 461.84 -565.871 460.337" stroke="#3DDEED" stroke-opacity="0.05" stroke-width="0.5" stroke-linecap="round" stroke-linejoin="round"/>
<path d="M2147.87 460.337C2048.79 472.958 1971.25 555.145 1842.58 598.254C1715.66 636.359 1651.74 596.95 1571.21 508.468C1419.79 334.884 1299.74 64.0843 1073.69 109.554C902.321 159.828 731.274 615.094 553.55 760.725C371.514 892.606 165.089 590.618 -45.7364 490.457C-181.871 430.495 -248.787 471.974 -452.8 465.733C-508.427 463.566 -509.566 461.936 -565.876 460.343" stroke="#3DDEED" stroke-opacity="0.05" stroke-width="0.5" stroke-linecap="round" stroke-linejoin="round"/>
<path d="M2147.87 460.337C2048.32 473.29 1970.3 555.253 1842.58 598.785C1715.07 637.79 1651.26 596.974 1571.21 507.846C1425.01 338.047 1335.78 135.841 1164.14 106.252C1008.88 86.6712 967.829 166.854 745.772 520.069C575.76 787.018 514.331 825.245 383.941 777.258C235.4 716.506 122.557 572.631 -34.4319 495.829C-168.672 434.485 -176.017 472.403 -565.876 460.337" stroke="#3DDEED" stroke-opacity="0.05" stroke-width="0.5" stroke-linecap="round" stroke-linejoin="round"/>
<path d="M2147.87 460.337C2047.81 473.628 1969.3 555.38 1842.58 599.316C1605.73 673.107 1549.37 442.012 1345.06 214.019C1292.04 157.456 1242.99 116.157 1164.15 103.699C1131.5 100.071 1105.3 99.9082 1073.7 107.906C906.974 166.588 736.864 629.189 553.555 768.041C380.417 882.641 182.583 597.88 -34.4268 495.835C-167.409 437.521 -170.489 473.659 -565.871 460.337" stroke="#3DDEED" stroke-opacity="0.05" stroke-width="0.5" stroke-linecap="round" stroke-linejoin="round"/>
<path d="M2147.87 460.337C2052.61 473.254 1973.85 549.489 1853.9 595.858C1615.05 680.006 1564.85 467.58 1356.38 223.2C1282.12 139.915 1203.85 81.2025 1084.99 103.928C917.109 150.743 754.82 608.425 564.859 763.484C392.694 888.568 199.519 608.147 -23.1223 500.941C-160.624 438.915 -164.097 474.908 -565.876 460.343" stroke="#3DDEED" stroke-opacity="0.05" stroke-width="0.5" stroke-linecap="round" stroke-linejoin="round"/>
<path d="M2147.87 460.337C2046.91 474.298 1966.75 555.923 1842.58 600.373C1613.04 674.477 1562.78 463.12 1356.37 219.753C1282.41 136.366 1203.74 77.3817 1084.99 102.805C922.031 152.488 768.008 591.934 576.158 758.607C400.013 896.971 214.576 610.471 -23.1276 500.73C-159.449 441.8 -162.145 476.079 -565.881 460.343" stroke="#3DDEED" stroke-opacity="0.05" stroke-width="0.5" stroke-linecap="round" stroke-linejoin="round"/>
<path d="M2147.87 460.337C2048.02 474.389 1963.14 556.907 1842.58 600.765C1715.29 642.552 1652.72 600.693 1571.21 505.245C1407.17 305.085 1306.76 49.755 1084.99 102.806C923.92 156.351 770.555 600.24 576.158 762.247C402.026 892.836 221.404 608.075 -23.1276 500.495C-156.866 445.519 -158.688 477.395 -565.881 460.337" stroke="#3DDEED" stroke-opacity="0.05" stroke-width="0.5" stroke-linecap="round" stroke-linejoin="round"/>
<path d="M2147.87 460.337C2048 474.455 1959.96 557.414 1842.58 600.692C1716.14 642.83 1653.61 601.513 1571.21 504.116C1406.41 301.234 1306.83 46.5558 1084.99 106.675C925.867 164.964 773.546 609.517 576.158 763.454C404.723 883.021 226.973 602.878 -23.1276 500.199C-87.652 475.487 -135.08 467.749 -204.045 467.616C-437.453 470.411 -161.286 478.735 -565.881 460.331" stroke="#3DDEED" stroke-opacity="0.05" stroke-width="0.5" stroke-linecap="round" stroke-linejoin="round"/>
<path d="M2147.87 460.337C2045.73 474.848 1960.61 556.521 1842.58 600.626C1604.38 681.153 1549.57 427.881 1345.06 199.774C1292.51 144.086 1243.75 104.502 1164.15 99.9987C1121.8 99.7331 1098.27 105.232 1073.7 115.065C916.012 195.814 753.412 666.847 553.555 778.254C392.932 852.793 215.306 584.582 -34.4269 495.889C-99.3498 474.54 -146.457 469.186 -215.34 469.892C-499.11 475.62 -425.771 467.236 -565.865 460.337" stroke="#3DDEED" stroke-opacity="0.05" stroke-width="0.5" stroke-linecap="round" stroke-linejoin="round"/>
<path d="M2147.87 460.337C2047.54 474.66 1969.1 548.704 1853.9 596.268C1725.34 644.943 1662.96 607.555 1582.51 515.464C1412.83 311.211 1313.49 37.9303 1084.99 114.413C925.447 183.67 771.45 650.176 564.859 772.568C400.313 855.823 232.351 583.176 -34.432 495.913C-99.2411 476.32 -147.192 471.437 -215.345 472.035C-497.526 477.051 -395.222 469.355 -565.871 460.337" stroke="#3DDEED" stroke-opacity="0.05" stroke-width="0.5" stroke-linecap="round" stroke-linejoin="round"/>
<path d="M2147.87 460.337C2044.58 475.155 1956.92 556.624 1842.58 600.481C1714.86 644.924 1652.63 599.618 1571.21 500.742C1423.96 314.682 1335.68 103.21 1164.14 103.059C1121.49 105.208 1098.11 112.143 1073.69 123.569C920.763 212.727 769.789 662.531 564.854 773.178C401.788 847.318 240.602 578.232 -34.4371 495.931C-99.3756 478.029 -148.418 473.689 -215.35 474.165C-481.941 478.27 -411.609 469.035 -565.876 460.331" stroke="#3DDEED" stroke-opacity="0.05" stroke-width="0.5" stroke-linecap="round" stroke-linejoin="round"/>
<path d="M2147.87 460.337C2042.57 475.463 1956.6 555.996 1842.58 600.258C1715.83 644.931 1653.77 600.548 1571.21 499.481C1407.58 291.19 1308 34.2604 1084.99 123.461C928.936 201.887 787.315 648.83 576.158 767.293C412.28 846.352 264.805 588.922 -11.8179 502.161C-171.804 455.575 -194.03 494.133 -531.957 462.703C-543.665 461.761 -544.721 461.617 -565.881 460.337" stroke="#3DDEED" stroke-opacity="0.05" stroke-width="0.5" stroke-linecap="round" stroke-linejoin="round"/>
<path d="M2147.87 460.337C2041.19 475.494 1955.74 555.29 1842.58 599.582C1715.63 644.762 1653.82 599.437 1571.21 497.815C1404.98 285.299 1308.69 34.683 1084.99 132.569C932.352 214.979 797.206 641.526 587.468 759.048C417.958 841.596 285.38 588.409 -0.513385 503.935C-170.675 457.229 -209.439 497.398 -520.648 463.977C-537.506 462.317 -541.088 461.949 -565.876 460.337" stroke="#3DDEED" stroke-opacity="0.05" stroke-width="0.5" stroke-linecap="round" stroke-linejoin="round"/>
<path d="M2147.87 460.337C2008.75 479.912 1903.02 606.173 1763.43 616.67C1530.03 620.623 1431.1 117.618 1186.76 115.867C1094.35 120.974 1052.76 156.538 1005.85 214.997C875.043 388.575 763.552 660.25 598.788 751.659C468.124 815.044 401.659 711.025 191.724 583.665C-40.8865 446.641 -185.733 491.435 -384.948 478.427C-468.53 472.24 -495.735 465.22 -565.865 460.343" stroke="#3DDEED" stroke-opacity="0.05" stroke-width="0.5" stroke-linecap="round" stroke-linejoin="round"/>
<path d="M2147.87 460.337C2041.72 475.131 1963.58 546.326 1853.9 593.733C1725.92 644.707 1664.35 605.515 1582.51 508.516C1410.62 294.956 1316.9 31.9063 1084.99 150.774C931.861 244.881 795.576 684.708 576.164 759.066C409.314 803.436 293.547 558.066 -11.8127 498.165C-72.8899 487.252 -130.53 483.696 -192.731 482.96C-495.425 481.819 -388.012 473.532 -565.871 460.331" stroke="#3DDEED" stroke-opacity="0.05" stroke-width="0.5" stroke-linecap="round" stroke-linejoin="round"/>
<path d="M2147.87 460.337C2036.57 475.675 1953.65 552.954 1842.58 597.566C1715.06 644.188 1654.01 596.172 1571.21 492.811C1424.59 302.984 1337.02 96.3288 1164.14 129.793C1121.98 140.078 1098.32 151.184 1073.69 167.234C926.048 280.482 793.101 698.862 576.164 756.319C408.942 788.751 303.64 551.493 -0.508258 498.605C-179.262 470.544 -207.689 503.543 -520.642 464.641C-537.604 462.703 -541.041 462.293 -565.871 460.331" stroke="#3DDEED" stroke-opacity="0.05" stroke-width="0.5" stroke-linecap="round" stroke-linejoin="round"/>
<path d="M2147.87 460.337C2034.73 475.717 1953.88 551.734 1842.58 596.733C1715.47 643.56 1654.63 595.502 1571.21 490.994C1401.57 270.727 1312.01 36.705 1084.99 170.179C933.279 274.681 807.33 694.281 587.468 750.295C413.295 782.878 317.978 543.441 10.7962 497.953C-53.5574 489.479 -127.683 487.771 -192.736 487.215C-452.697 486.503 -430.828 471.624 -565.876 460.331" stroke="#3DDEED" stroke-opacity="0.05" stroke-width="0.5" stroke-linecap="round" stroke-linejoin="round"/>
<path d="M2147.87 460.337C1996.36 480.413 1890.43 612.372 1752.13 613.748C1528 600.843 1425.74 85.645 1175.46 143.609C1081.59 170.572 1046.65 209.281 994.547 283.005C861.793 477.944 757.299 716.337 587.473 744.295C454.791 757.388 374.107 626.629 191.719 541.087C49.0471 477.95 -59.4477 491.223 -283.187 488.851C-414.425 486.425 -466.216 469.174 -565.871 460.331" stroke="#3DDEED" stroke-opacity="0.05" stroke-width="0.5" stroke-linecap="round" stroke-linejoin="round"/>
<path d="M2147.87 460.337C2036.48 474.733 1961.09 542.535 1853.9 589.635C1728.12 640.699 1667.14 602.328 1582.51 500.706C1402.68 275.061 1321.84 39.7713 1084.99 197.112C979.682 277.222 902.041 478.053 768.391 632.502C572.411 846.932 458.228 687.515 282.176 575.83C94.2183 460.717 -1.06213 496.444 -294.496 490.173C-415.704 486.503 -473.111 469.041 -565.871 460.337" stroke="#3DDEED" stroke-opacity="0.05" stroke-width="0.5" stroke-linecap="round" stroke-linejoin="round"/>
<path d="M2147.87 460.337C2034.98 474.558 1960.99 541.226 1853.9 588.379C1728.04 639.558 1667.48 600.662 1582.51 498.491C1394.27 262.132 1328.87 55.7789 1096.31 202.635C939.883 312.515 828.397 707.391 610.087 731.952C422.182 740.885 339.055 497.609 33.4155 487.312C-52.6256 485.737 -4.34366 490.867 -249.268 492.249C-403.348 492.014 -457.743 471.033 -565.876 460.331" stroke="#3DDEED" stroke-opacity="0.05" stroke-width="0.5" stroke-linecap="round" stroke-linejoin="round"/>
<path d="M2147.87 460.337C2033.37 474.371 1961.18 539.807 1853.9 587.118C1727.01 638.822 1666.76 597.759 1582.51 496.269C1391.16 255.873 1329.43 59.0443 1096.31 215.667C985.427 297.793 913.279 494.278 779.696 639.89C589.109 835.065 467.405 660.316 293.48 551.71C110.512 442.368 31.3088 496.638 -271.888 493.734C-405.647 491.356 -464.224 470.936 -565.876 460.337" stroke="#3DDEED" stroke-opacity="0.05" stroke-width="0.5" stroke-linecap="round" stroke-linejoin="round"/>
<path d="M2147.87 460.337C2025.55 474.89 1954.66 544.66 1842.58 590.311C1715.64 637.398 1654.39 584.1 1571.21 479.67C1384.61 238.03 1316.48 58.2839 1084.99 238.248C932.891 370.068 821.88 752.07 598.778 721.395C413.233 684.72 332.124 457.241 33.4103 477.316C-88.9148 487.167 -50.1929 493.185 -237.964 495.123C-398.1 495.696 -451.993 472.795 -565.876 460.337" stroke="#3DDEED" stroke-opacity="0.05" stroke-width="0.5" stroke-linecap="round" stroke-linejoin="round"/>
<path d="M2147.87 460.337C2024.37 474.461 1954.32 543.29 1842.58 588.518C1715.23 635.448 1653.6 579.965 1571.21 476.851C1428.45 292.783 1342.4 111.552 1175.45 193.714C1142.77 211.484 1113.51 231.016 1084.99 254.153C931.446 391.744 823.609 765.373 598.778 712.618C490.93 680.996 411.913 586.134 293.48 516.798C199.675 464.991 130.595 458.049 22.1058 472.294C-334.507 522.659 -402.738 478.97 -565.876 460.331" stroke="#3DDEED" stroke-opacity="0.05" stroke-width="0.5" stroke-linecap="round" stroke-linejoin="round"/>
<path d="M2147.87 460.337C2022.94 474.069 1954.51 541.684 1842.58 586.725C1715.05 633.402 1653.46 576.639 1571.21 474.039C1428.4 290.707 1342.74 113.924 1175.45 205.533C1143.64 224.546 1113.43 246.046 1084.99 270.064C929.899 413.636 825.105 779.021 598.778 703.848C484.838 659.586 397.761 549.024 270.866 486.871C175.466 443.841 106.361 449.696 -0.508258 470.749C-286.939 528.17 -441.858 475.119 -565.871 460.337" stroke="#3DDEED" stroke-opacity="0.05" stroke-width="0.5" stroke-linecap="round" stroke-linejoin="round"/>
<path d="M2147.87 460.337C2021.35 473.677 1954.91 540.018 1842.58 584.932C1715.28 631.192 1653.77 573.88 1571.21 471.22C1428.3 288.57 1343.1 116.266 1175.45 217.339C1144.03 237.819 1113 261.372 1084.99 285.968C928.936 435.022 826.492 792.861 598.778 695.072C486.468 640.723 396.524 527.083 270.866 469.041C164.157 424.193 89.8187 443.738 -23.1223 471.485C-264.734 529.944 -462.112 473.224 -565.876 460.343" stroke="#3DDEED" stroke-opacity="0.05" stroke-width="0.5" stroke-linecap="round" stroke-linejoin="round"/>
<path d="M2147.87 460.337C1985.59 476.701 1892.61 594.445 1763.43 600.01C1535.25 594.071 1438.02 71.1526 1186.76 221.709C973.15 362.306 947.502 550.153 791.005 674.748C588.845 819.275 458.3 495.841 225.643 436.646C83.0017 406.719 -9.44216 485.531 -170.111 494.706C-394.746 504.774 -421.92 478.916 -565.865 460.337" stroke="#3DDEED" stroke-opacity="0.05" stroke-width="0.5" stroke-linecap="round" stroke-linejoin="round"/>
<path d="M2147.87 460.337C2025.2 472.119 1962.44 530.373 1853.9 576.711C1727.59 626.436 1667.52 580.599 1582.51 479.296C1500.14 377.595 1453.8 299.731 1378.99 237.668C1273.67 158.85 1210.18 207.917 1107.6 296.9C934.107 452.641 840.514 800.726 621.392 689.935C528.575 637.355 443.626 533.403 327.404 460.965C80.8901 317.163 31.2416 559.539 -430.186 483.467C-493.09 472.644 -510.28 467.755 -565.876 460.331" stroke="#3DDEED" stroke-opacity="0.05" stroke-width="0.5" stroke-linecap="round" stroke-linejoin="round"/>
<path d="M2147.87 460.337C2023.51 471.642 1964.28 528.037 1853.9 574.448C1727.87 623.267 1667.8 576.85 1582.51 475.705C1496.87 370.648 1445.91 286.3 1367.67 231.186C1267.69 169.165 1204.48 222.18 1096.31 322.468C929.211 484.065 835.441 821.46 610.087 672.642C521.324 609.215 431.576 499.1 316.099 434.026C73.2347 308.072 31.961 565.104 -452.8 479.646C-518.329 467.779 -520.016 466.62 -565.876 460.343" stroke="#3DDEED" stroke-opacity="0.05" stroke-width="0.5" stroke-linecap="round" stroke-linejoin="round"/>
<path d="M2147.87 460.337C2022.67 471.051 1964.22 526.498 1853.9 572.178C1727.92 620.183 1667.92 572.885 1582.51 472.101C1495.15 365.59 1445.4 284.484 1367.67 233.153C1272.92 178.72 1212.89 222.24 1084.99 349.099C924.417 517.655 831.316 828.601 610.087 661.741C523.239 591.681 426.173 468.268 304.79 408.059C66.0762 301.403 31.2623 564.271 -452.8 479.761C-517.356 468.148 -518.153 467.025 -565.876 460.337" stroke="#3DDEED" stroke-opacity="0.05" stroke-width="0.5" stroke-linecap="round" stroke-linejoin="round"/>
<path d="M2147.87 460.337C2021.52 470.502 1964.98 524.602 1853.9 569.915C1727.26 617.346 1667.75 568.587 1582.51 468.504C1498.69 366.966 1452.56 293.791 1378.99 242.105C1274.95 177.972 1212.51 235.2 1084.99 364.793C975.386 481.982 902.161 657.347 779.696 705.092C609.689 755.45 512.685 475.584 293.48 383.191C116.097 317.857 17.877 471.962 -181.426 489.618C-388.949 505.836 -421.216 481.089 -565.876 460.337" stroke="#3DDEED" stroke-opacity="0.05" stroke-width="0.5" stroke-linecap="round" stroke-linejoin="round"/>
<path d="M2147.87 460.337C2020.46 469.91 1965.41 522.87 1853.9 567.651C1727.13 614.352 1667.43 564.126 1582.51 464.912C1499.22 364.636 1452.28 291.98 1378.99 243.59C1280.29 187.092 1218.28 235.381 1073.69 392.794C970.122 511.541 897.419 673.891 779.696 710.108C612.148 745.551 524.952 467.14 304.79 367.871C122.65 295.68 19.9682 467.731 -181.426 487.916C-386.392 506.072 -420.082 481.765 -565.876 460.349" stroke="#3DDEED" stroke-opacity="0.05" stroke-width="0.5" stroke-linecap="round" stroke-linejoin="round"/>
<path d="M2147.87 460.337C2019.78 469.258 1964.88 521.488 1853.9 565.183C1727.47 610.761 1667.94 560.245 1582.51 460.989C1496.66 358.371 1444.73 279.6 1367.67 238.845C1281.45 201.102 1220.83 237.439 1062.38 420.698C959.143 546.308 885.727 699.87 768.391 715.039C603.933 720.043 512.374 424.857 293.485 343.6C117.365 288.431 15.8739 463.258 -181.421 485.459C-384.534 505.879 -418.328 482.302 -565.871 460.331" stroke="#3DDEED" stroke-opacity="0.05" stroke-width="0.5" stroke-linecap="round" stroke-linejoin="round"/>
<path d="M2147.87 460.337C2019 468.564 1965.2 519.689 1853.9 562.352C1727.25 606.692 1667.79 554.879 1582.51 456.486C1495.67 353.542 1444.39 277.482 1367.67 240.161C1268.9 201.241 1209.78 269.225 1073.7 420.427C968.771 542.035 896.389 696.557 779.701 714.23C610.31 722.952 530.05 419.147 304.795 327.822C125.223 265.645 19.1399 452.357 -170.111 480.256C-375.507 506.283 -420.01 482.085 -565.865 460.337" stroke="#3DDEED" stroke-opacity="0.05" stroke-width="0.5" stroke-linecap="round" stroke-linejoin="round"/>
<path d="M2147.87 460.337C2018.41 467.852 1964.94 518.114 1853.9 559.515C1727.72 602.377 1668.39 550.394 1582.51 451.977C1500.35 355.377 1451.55 285.407 1378.99 246.499C1272.19 199.074 1212.25 278.297 1073.69 433.241C968.124 555.863 895.892 706.106 779.696 714.888C609.373 710.403 531.35 394.472 304.79 307.849C125.021 250.09 19.9112 445.488 -170.116 476.32C-370.657 504.581 -411.221 483.425 -565.871 460.337" stroke="#3DDEED" stroke-opacity="0.05" stroke-width="0.5" stroke-linecap="round" stroke-linejoin="round"/>
<path d="M2147.87 460.337C2018.73 467.055 1961.96 517.534 1853.9 556.678C1727.82 598.188 1668.61 545.433 1582.51 447.468C1500.21 351.52 1451.34 283.144 1378.99 247.326C1270.07 203.577 1210.65 291.926 1073.69 446.044C967.472 569.679 895.328 715.588 779.696 715.528C608.54 697.734 532.623 369.712 304.79 287.864C122.764 233.896 21.3243 442.682 -181.426 474.129C-375.46 501.666 -402.743 484.68 -565.876 460.331" stroke="#3DDEED" stroke-opacity="0.05" stroke-width="0.5" stroke-linecap="round" stroke-linejoin="round"/>
<path d="M2147.87 460.337C1973.28 468.407 1889.01 573.561 1763.43 567.766C1603.67 548.813 1516.55 297.588 1367.67 244.097C1261.22 216.108 1201.93 301.898 960.618 601.658C814.618 776.805 731.595 743.511 598.783 559.762C515.273 441.71 384.599 223.296 203.029 266.647C59.3162 309.111 -13.7693 444.251 -192.725 472.125C-372.008 498.889 -398.214 485.398 -565.865 460.343" stroke="#3DDEED" stroke-opacity="0.05" stroke-width="0.5" stroke-linecap="round" stroke-linejoin="round"/>
<path d="M2147.87 460.337C2016.67 465.57 1963.9 513.394 1853.9 550.75C1727.93 589.405 1668.85 534.9 1582.51 438.04C1506.62 351.097 1452.41 278.93 1378.99 248.479C1264.98 212.112 1205.24 322.275 1084.99 456.884C972.047 585.089 903.46 721.196 791.005 716.717C614.901 690.883 547.064 339.737 316.099 252.046C133.318 194.601 26.8367 416.721 -158.807 461.478C-358.752 502.945 -432.686 480.008 -565.871 460.331" stroke="#3DDEED" stroke-opacity="0.05" stroke-width="0.5" stroke-linecap="round" stroke-linejoin="round"/>
<path d="M2147.87 460.337C2016.27 464.683 1963.64 511.565 1853.9 547.237C1729.99 583.46 1671.44 531.393 1582.51 432.438C1509.4 349.467 1453.2 276.069 1378.99 247.96C1263.64 215.359 1203.05 332.289 1084.99 464.532C971.757 592.429 902.787 724.437 791.005 713.337C612.986 676.535 548.394 317.108 316.099 233.407C135.042 180.217 24.0779 408.524 -158.807 455.556C-359.212 500.241 -432.945 479.368 -565.871 460.343" stroke="#3DDEED" stroke-opacity="0.05" stroke-width="0.5" stroke-linecap="round" stroke-linejoin="round"/>
<path d="M2147.87 460.337C2015.81 463.771 1963.59 509.639 1853.9 543.719C1729.42 578.257 1670.85 524.337 1582.51 426.825C1510.61 346.033 1453.55 272.991 1378.99 247.422C1262.49 218.739 1202.3 341.518 1084.99 472.155C974.071 596.829 908.475 717.079 802.315 711.725C621.858 683.09 558.172 312.581 327.409 218.594C143.567 155.898 33.0531 389.209 -147.497 446.521C-344.15 500.295 -455.911 475.717 -565.871 460.337" stroke="#3DDEED" stroke-opacity="0.05" stroke-width="0.5" stroke-linecap="round" stroke-linejoin="round"/>
<path d="M2147.87 460.337C1972 463.681 1887.61 561.579 1763.43 549.145C1604.99 521.886 1515.91 275.587 1367.67 244.531C1246.56 231.18 1199.68 361.081 960.619 625.476C803.246 791.328 716.621 690.623 598.783 500.579C514.082 361.376 389.645 135.497 203.029 202.901C62.0751 262.217 -16.3987 411.204 -181.421 449.158C-360.242 487.837 -393.747 483.57 -565.871 460.337" stroke="#3DDEED" stroke-opacity="0.05" stroke-width="0.5" stroke-linecap="round" stroke-linejoin="round"/>
<path d="M2147.87 460.337C2014.91 461.931 1963 505.981 1853.9 536.687C1730.52 567.337 1672.36 513.2 1582.51 415.616C1513.38 339.26 1454.14 266.738 1378.99 246.372C1262.82 226.266 1201.18 356.041 1096.31 474.866C968.667 616.766 901.053 733.678 791.005 703.154C606.738 631.754 544.015 230.286 304.79 174.815C126.201 146.144 21.1586 389.221 -170.116 440.798C-358.705 487.058 -405.574 481.385 -565.871 460.337" stroke="#3DDEED" stroke-opacity="0.05" stroke-width="0.5" stroke-linecap="round" stroke-linejoin="round"/>
<path d="M2147.87 460.337C2014.48 460.929 1963.03 503.917 1853.9 532.878C1730.31 561.615 1672.14 506.084 1582.51 409.568C1518.16 339.315 1456.06 263.545 1378.99 245.195C1262.27 228.88 1200.29 362.692 1096.31 480.189C969.102 620.509 900.582 733.968 791.005 698.011C605.532 616.664 544.269 208.593 304.79 157.57C123.716 132.086 22.8667 384.422 -181.426 437.563C-354.989 480.383 -389.989 482.055 -565.871 460.337" stroke="#3DDEED" stroke-opacity="0.05" stroke-width="0.5" stroke-linecap="round" stroke-linejoin="round"/>
<path d="M2147.87 460.337C1968.62 459.54 1888.15 551.433 1763.43 533.276C1610.43 500.12 1523.13 273.196 1378.99 243.016C1299.75 234.204 1246.71 295.023 1198.08 354.894C966.457 648.938 893.832 717.725 802.32 694.341C596.159 618.939 508.917 62.8229 225.648 149.428C79.2802 203.891 -6.38825 378.875 -170.106 427.779C-355.755 478.705 -402.236 478.687 -565.871 460.337" stroke="#3DDEED" stroke-opacity="0.05" stroke-width="0.5" stroke-linecap="round" stroke-linejoin="round"/>
<path d="M2147.87 460.337C2014.31 458.575 1961.74 499.698 1853.9 524.379C1720.86 550.497 1665.86 484.704 1548.58 359.964C1499.36 308.302 1441.2 245.992 1367.67 239.914C1253.67 241.906 1196.02 376.666 1084.99 495.931C972.28 616.211 905.618 717.272 802.315 686.971C615.3 611.503 558.177 206.396 327.409 131.422C142.19 84.4802 28.4672 351.984 -158.807 417.403C-360.429 480.491 -433.742 473.791 -565.871 460.337" stroke="#3DDEED" stroke-opacity="0.05" stroke-width="0.5" stroke-linecap="round" stroke-linejoin="round"/>
<path d="M2147.87 460.337C2008.18 457.277 1950.59 502.897 1842.58 522.146C1718.22 539.771 1665.98 476.538 1548.58 353.68C1308.3 105.455 1271.45 301.481 1062.38 521.331C961.121 629.496 888.485 728.324 779.696 668.368C595.331 546.664 539.186 149.536 304.79 110.984C124.534 94.7413 23.3273 355.509 -181.426 417.523C-348.819 466.101 -389.937 476.344 -565.871 460.337" stroke="#3DDEED" stroke-opacity="0.05" stroke-width="0.5" stroke-linecap="round" stroke-linejoin="round"/>
<path d="M2147.87 460.337C2006.49 456.003 1952.33 500.12 1842.58 517.691C1714.87 533.475 1658.72 461.019 1548.58 347.397C1307.75 102.516 1270.07 308.03 1062.38 522.532C958.667 631.054 882.383 731.741 768.391 652.258C586.293 505.788 527.271 111.775 293.485 94.6267C182.004 94.7957 106.573 192.621 -11.8127 304.427C-111.265 395.987 -141.358 398.721 -249.263 431.376C-378.943 469.783 -437.174 470.785 -565.871 460.337" stroke="#3DDEED" stroke-opacity="0.05" stroke-width="0.5" stroke-linecap="round" stroke-linejoin="round"/>
<path d="M2147.87 460.331C2007.8 454.717 1949.75 497.869 1842.58 512.977C1626.34 535.63 1538.14 233.841 1367.67 233.757C1252.44 245.159 1195.04 385.702 1084.99 498.46C963.372 621.324 891.912 719.831 779.69 650.797C589.554 513.249 533.311 95.2665 293.475 81.0336C181.714 82.8504 105.75 182.855 -11.8231 295.536C-111.042 388.273 -141.038 391.357 -249.274 425.636C-379.244 466.192 -437.578 469.137 -565.871 460.343" stroke="#3DDEED" stroke-opacity="0.05" stroke-width="0.5" stroke-linecap="round" stroke-linejoin="round"/>
<path d="M2147.87 460.319C2013.12 453.631 1960.35 490.233 1853.9 506.543C1719.78 522.743 1667.36 452.75 1548.58 333.725C1497.76 283.705 1441 229.007 1367.67 230.473C1252.54 244.133 1194.45 385.273 1084.99 494.567C965.401 612.04 892.16 710.464 779.696 639.927C590.243 500.833 532.033 81.3837 293.48 69.8005C181.854 72.7944 105.802 173.548 -11.8179 287.26C-97.8073 368.33 -131.524 381.102 -204.045 404.812C-356.102 454.892 -403.918 468.884 -565.871 460.355" stroke="#3DDEED" stroke-opacity="0.05" stroke-width="0.5" stroke-linecap="round" stroke-linejoin="round"/>
<path d="M2147.87 460.301C2012.29 452.225 1960.8 487.493 1853.9 501.69C1726.53 514.486 1674.56 452.677 1559.9 337.818C1509.53 288.081 1452.15 230.775 1378.99 226.719C1260.89 231.524 1198.85 375.561 1096.31 479.658C890.359 679.885 817.186 773.643 610.093 398.082C534.476 258.197 457.907 76.3738 304.795 58.99C124.69 52.1512 25.227 318.243 -181.421 390.693C-343.943 445.609 -391.092 466.79 -565.871 460.367" stroke="#3DDEED" stroke-opacity="0.05" stroke-width="0.5" stroke-linecap="round" stroke-linejoin="round"/>
<path d="M2147.87 460.289C2012.01 450.873 1960.41 484.873 1853.9 496.855C1726.28 507.104 1675.25 444.607 1559.9 330.593C1509.01 281.091 1452.06 225.699 1378.99 223.212C1260.87 230.419 1198.68 374.698 1096.31 476.073C887.921 673.191 815.172 758.559 610.093 386.323C531.743 241.284 456.68 63.3058 304.795 47.6423C124.907 42.7229 25.5065 309.268 -181.421 383.975C-343.855 440.696 -392.717 463.989 -565.871 460.379" stroke="#3DDEED" stroke-opacity="0.05" stroke-width="0.5" stroke-linecap="round" stroke-linejoin="round"/>
<path d="M2147.87 460.277C2011.87 449.496 1959.46 482.29 1853.9 492.008C1634.13 505.191 1549.19 221.872 1378.99 219.687C1257.61 229.58 1197.43 379.478 1084.99 482.875C965.23 590.522 891.808 681.623 779.696 607.32C586.619 459.226 530.661 40.067 293.48 36.0953C182.397 42.6686 106.284 145.311 -11.8179 262.44C-99.7172 347.512 -131.115 359.119 -215.35 389.462C-358.41 442.048 -411.428 461.152 -565.871 460.385" stroke="#3DDEED" stroke-opacity="0.05" stroke-width="0.5" stroke-linecap="round" stroke-linejoin="round"/>
<path d="M2147.87 460.253C2011.22 448.042 1959.27 479.538 1853.9 487.058C1721.48 492.31 1672.98 422.69 1548.58 305.411C1307.88 84.1059 1261.84 323.706 1062.38 496.861C961.436 585.373 888.253 668.23 779.696 596.226C588.146 449.43 535.817 46.9965 304.79 27.3251C125.264 25.6652 26.5883 292.101 -181.426 371.004C-340.801 429.74 -395.175 458.387 -565.871 460.385" stroke="#3DDEED" stroke-opacity="0.05" stroke-width="0.5" stroke-linecap="round" stroke-linejoin="round"/>
<path d="M2147.87 460.222C2010.1 446.545 1959.38 476.628 1853.9 481.994C1635.87 486.165 1550.16 208.291 1378.99 211.894C1257.81 225.578 1197.4 373.364 1084.99 469.47C964.221 570.199 896.865 650.254 791.005 592.218C592.07 462.854 534.269 22.5506 293.485 21.2347C182.521 29.0333 106.656 131.531 -11.8127 249.342C-99.6292 334.583 -130.939 346.528 -215.345 378.024C-358.146 432.215 -412.246 455.87 -565.871 460.361" stroke="#3DDEED" stroke-opacity="0.05" stroke-width="0.5" stroke-linecap="round" stroke-linejoin="round"/>
<path d="M2147.87 460.192C2008.84 444.987 1959.28 473.749 1853.9 476.924C1638.07 476.664 1549.78 201.657 1378.99 207.856C1260.75 222.868 1199.44 362.994 1096.31 452.424C897.647 615.384 819.629 711.357 621.397 368.843C515.966 183.012 457.658 37.7915 316.099 16.1524C135.078 2.13069 27.6493 274.228 -170.116 355.353C-351.852 425.901 -410.269 453.064 -565.871 460.337" stroke="#3DDEED" stroke-opacity="0.05" stroke-width="0.5" stroke-linecap="round" stroke-linejoin="round"/>
<path d="M2147.87 460.162C2007.4 443.352 1960.19 470.84 1853.9 471.854C1639.18 467.158 1550.47 195.006 1378.99 203.812C1261.15 220.399 1198.81 359.692 1096.31 445.048C897.87 600.946 819.743 698.929 621.397 360.761C513.135 172.377 456.308 30.9889 316.099 10.0802C135.471 -3.19907 27.8771 267.601 -170.116 349.667C-355.139 422.286 -413.012 450.486 -565.871 460.319" stroke="#3DDEED" stroke-opacity="0.05" stroke-width="0.5" stroke-linecap="round" stroke-linejoin="round"/>
<path d="M2147.87 460.132C2000.93 441.064 1947.64 470.743 1842.58 466.307C1633.04 450.058 1534.58 160.842 1356.37 204.283C1275.11 231.234 1223.71 306.153 1152.83 384.832C1111.19 429.3 1102.82 432.529 1051.06 471.184C943.113 553.841 870.488 624.776 757.081 533.717C567.892 363.978 503.321 -30.2102 270.871 5.96361C159.928 31.3632 84.1095 141.792 -34.4268 253.247C-118.491 329.687 -150.556 336.019 -226.649 366.066C-359.937 419.401 -421.485 448.482 -565.871 460.295" stroke="#3DDEED" stroke-opacity="0.05" stroke-width="0.5" stroke-linecap="round" stroke-linejoin="round"/>
<path d="M2147.87 460.102C1999.98 439.446 1947.07 467.61 1842.58 461.164C1718.08 449.104 1677.01 381.464 1548.58 270.106C1313.02 72.8004 1261.74 314.543 1062.38 453.438C960.531 526.142 888.315 604.121 779.696 540.284C580.325 404.142 524.771 -1.26756 293.485 0.156943C183.091 9.10232 106.993 110.375 -11.8127 227.401C-96.9843 309.334 -130.499 324.104 -204.04 352.558C-346.541 408.168 -411.842 445.307 -565.871 460.265" stroke="#3DDEED" stroke-opacity="0.05" stroke-width="0.5" stroke-linecap="round" stroke-linejoin="round"/>
<path d="M2147.87 460.071C1957.32 431.593 1874.38 488.567 1752.13 430.936C1611.86 356.035 1513.26 168.978 1367.67 194.553C1289.21 215.063 1233.29 285.172 1175.46 348.363C1118.55 409.272 1129.69 396.096 983.228 499.921C922.254 541.612 871.503 567.561 802.31 542.167C579.585 439.682 509.926 -86.9067 236.947 12.7661C93.5195 74.7681 -0.927531 260.044 -158.807 331.039C-350.423 410.817 -433.747 445.223 -565.871 460.228" stroke="#3DDEED" stroke-opacity="0.05" stroke-width="0.5" stroke-linecap="round" stroke-linejoin="round"/>
<path d="M2147.87 460.041C1994.38 435.577 1948.27 461.629 1842.58 451.229C1711.19 433.706 1666.89 352.672 1537.29 248.467C1313.45 77.3153 1250.32 316.535 1073.7 426.07C961.913 496.052 891.793 579.355 779.701 521.126C579.187 398.637 520.537 0.337967 293.485 0.18103C183.479 8.2874 106.863 107.924 -11.8127 222.391C-99.2566 304.777 -130.779 317.289 -215.345 349.552C-350.869 402.319 -423.167 441.619 -565.871 460.186" stroke="#3DDEED" stroke-opacity="0.05" stroke-width="0.5" stroke-linecap="round" stroke-linejoin="round"/>
<path d="M2147.87 460.017C2001.29 435.227 1956.25 456.45 1853.9 447.583C1728.36 432.909 1692.31 372.851 1559.9 260.545C1316.26 60.8491 1255.61 307.988 1084.99 409.755C908.542 512.512 825.265 648.884 621.397 338.222C502.985 153.019 451.711 21.9832 316.099 1.1348C137.562 -12.9412 28.1877 247.314 -170.116 328.625C-379.958 410.196 -432.997 440.696 -565.871 460.144" stroke="#3DDEED" stroke-opacity="0.05" stroke-width="0.5" stroke-linecap="round" stroke-linejoin="round"/>
<path d="M2147.87 459.987C1993.01 432.457 1945.73 455.249 1842.58 441.287C1717.06 419.974 1680.16 350.747 1548.58 244.99C1317.21 66.7161 1256.07 307.288 1073.69 406.592C896.136 505.04 817.662 634.259 610.082 318.05C505.464 155.011 444.548 11.7642 304.795 0.29575C128.717 -1.02614 27.2715 248.944 -181.421 329.422C-363.172 397.568 -425.02 437.177 -565.871 460.108" stroke="#3DDEED" stroke-opacity="0.05" stroke-width="0.5" stroke-linecap="round" stroke-linejoin="round"/>
<path d="M2147.87 459.969C1992.7 430.881 1945.04 452.327 1842.58 436.784C1710.75 412.278 1667.5 329.192 1537.29 231.113C1317.24 74.5147 1252.73 306.551 1073.7 397.297C961.633 455.466 892.74 540.507 779.701 494.175C577.406 393.874 514.15 6.33179 293.485 3.1991C183.919 9.69989 107.05 106.204 -11.8127 216.766C-99.1479 296.121 -131.053 308.573 -215.345 339.574C-362.504 394.81 -431.527 436.096 -565.871 460.077" stroke="#3DDEED" stroke-opacity="0.05" stroke-width="0.5" stroke-linecap="round" stroke-linejoin="round"/>
<path d="M2147.87 459.963C1990.91 429.107 1945.17 449.75 1842.58 432.734C1716.16 407.437 1678.08 334.939 1548.58 235.145C1320.44 67.2956 1251.75 303.376 1084.99 383.13C914.718 463.023 826.585 621.076 621.397 337.969C496.375 159.876 450.008 33.6146 316.099 10.5509C138.592 -6.86901 29.0106 244.223 -170.116 321.889C-411.118 410.673 -440.864 435.945 -565.871 460.053" stroke="#3DDEED" stroke-opacity="0.05" stroke-width="0.5" stroke-linecap="round" stroke-linejoin="round"/>
<path d="M2147.87 459.957C1995.56 428.624 1941.51 446.515 1842.58 428.684C1644.5 386.269 1542.55 126.147 1356.37 181.98C1275.5 212.051 1230.7 272.744 1152.83 335.132C1114.39 363.93 1106.8 364.678 1062.38 384.657C956.83 435.855 884.163 523.425 768.391 477.691C564.016 380.185 503.782 6.94745 282.176 15.585C172.749 27.7114 95.8849 125.181 -23.1224 229.206C-108.32 301.578 -136.312 308.911 -226.654 340.721C-370.688 392.438 -439.462 433.797 -565.871 460.035" stroke="#3DDEED" stroke-opacity="0.05" stroke-width="0.5" stroke-linecap="round" stroke-linejoin="round"/>
<path d="M2147.87 459.945C1991.99 426.463 1942.96 444.166 1842.58 424.628C1644.69 379.472 1544.2 123.068 1356.37 180.332C1275.25 210.705 1229.67 271.102 1152.83 329.524C1114.05 356.934 1106.88 356.934 1062.38 375.392C898.284 449.834 812.631 604.7 598.778 313.179C498.611 172.956 433.523 27.2466 293.48 21.114C184.323 24.2467 107.127 116.224 -11.8179 220.592C-98.4491 294.805 -130.825 307.04 -215.35 335.313C-369.43 387.772 -437.919 431.593 -565.871 460.011" stroke="#3DDEED" stroke-opacity="0.05" stroke-width="0.5" stroke-linecap="round" stroke-linejoin="round"/>
<path d="M2147.87 459.939C1993.82 425.455 1940.74 441.094 1842.58 420.584C1715.2 389.728 1677.8 314.79 1548.58 221.727C1324.81 68.8468 1261.58 294.618 1073.69 361.835C913.563 422.714 820.705 599.033 610.082 331.957C490.78 175.322 439.522 44.7631 304.784 27.6932C130.57 18.3374 27.0851 252.607 -181.431 322.927C-386.009 389.094 -433.773 428.708 -565.871 459.987" stroke="#3DDEED" stroke-opacity="0.05" stroke-width="0.5" stroke-linecap="round" stroke-linejoin="round"/>
<path d="M2147.87 459.951C1990.39 423.457 1942.08 439.187 1842.58 417.27C1647.81 367.895 1547.2 118.348 1356.37 178.352C1279.81 207.434 1238.19 258.155 1164.14 312.044C1118.66 342.961 1110.12 341.856 1062.38 358.443C904.443 420.457 812.33 593.087 598.778 323.778C491.349 183.803 431.131 44.7209 293.48 35.6367C184.7 36.2705 107.748 124.571 -11.8179 224.95C-98.9615 296.357 -132.052 307.952 -215.35 333.701C-378.188 384.796 -438.007 428.044 -565.871 459.987" stroke="#3DDEED" stroke-opacity="0.05" stroke-width="0.5" stroke-linecap="round" stroke-linejoin="round"/>
<path d="M2147.87 459.981C1986.72 421.519 1943.83 437.811 1842.58 414.626C1654.38 365.366 1553.47 128.646 1367.67 175.6C1286.23 201.555 1240.69 256.658 1164.14 309.569C1118.28 338.995 1110.1 337.063 1062.38 352.165C906.943 408.922 811.606 589.985 598.778 332.905C485.154 190.623 429.252 57.4568 293.48 46.5196C122.055 44.9925 27.2249 263.201 -192.736 328.039C-394.373 386.613 -427.836 423.898 -565.871 460.011" stroke="#3DDEED" stroke-opacity="0.05" stroke-width="0.5" stroke-linecap="round" stroke-linejoin="round"/>
<path d="M2147.87 460.011C1947.69 410.866 1869.96 444.287 1752.13 373.877C1624.63 290.695 1515.51 128.622 1356.37 180.054C1279.47 209.589 1236.09 259.996 1164.14 307.107C1083.04 356.035 1089.46 320.851 983.228 384.464C913.631 427.169 862.75 463.12 791 463.995C550.216 449.913 485.04 -12.4885 225.638 67.2594C84.8445 118.873 -6.07249 271.446 -170.116 322.921C-440.398 401.679 -427.401 422.195 -565.871 460.029" stroke="#3DDEED" stroke-opacity="0.05" stroke-width="0.5" stroke-linecap="round" stroke-linejoin="round"/>
<path d="M2147.87 460.035C1986.24 419.25 1930.79 433.917 1831.28 406.188C1648.97 349.027 1544.01 108.377 1345.06 185.27C1265.21 220.737 1227.28 268.941 1152.83 311.024C1112.5 331.438 1105.95 328.516 1062.38 339.605C905.209 388.376 806.606 590.323 587.473 338.156C478.171 207.458 419.553 73.1686 282.176 67.8569C173.546 71.219 96.6148 157.558 -23.1224 247.622C-102.435 305.489 -134.749 315.835 -215.345 336.436C-384.704 380.426 -433.126 422.232 -565.871 460.047" stroke="#3DDEED" stroke-opacity="0.05" stroke-width="0.5" stroke-linecap="round" stroke-linejoin="round"/>
<path d="M2147.87 460.065C1985.7 418.037 1930.57 431.956 1831.28 403.453C1653.02 346.099 1550.42 117.376 1356.37 181.751C1278.28 212.094 1236.29 260.17 1164.14 302.157C1125.82 322.36 1116.15 322.969 1073.69 330.798C918.915 365.415 815.892 576.295 610.082 372.151C482.307 238.217 445.671 117.497 316.094 82.796C141.538 48.6804 29.9579 269.858 -170.122 326.271C-440.662 396.325 -418.24 416.298 -565.871 460.065" stroke="#3DDEED" stroke-opacity="0.05" stroke-width="0.5" stroke-linecap="round" stroke-linejoin="round"/>
<path d="M2147.87 460.108C1981.88 416.292 1932.43 431.201 1831.28 401.697C1652.86 343.498 1547.5 109.518 1345.06 188.662C1259.45 226.737 1218.53 278.912 1141.53 312.129C1098.17 327.798 1095.76 320.784 1051.06 332.325C896.312 383.185 794.235 587.22 576.164 346.86C475.179 230.854 421.457 109.536 293.48 91.7234C123.308 79.9652 25.6152 284.967 -192.736 334.395C-400.232 379.817 -413.908 413.618 -565.871 460.108" stroke="#3DDEED" stroke-opacity="0.05" stroke-width="0.5" stroke-linecap="round" stroke-linejoin="round"/>
<path d="M2147.87 460.162C1990.01 417.68 1942.84 430.314 1842.58 404.069C1713.34 366.151 1678.43 289.143 1548.58 211.804C1331.94 91.5785 1259.95 304.475 1084.99 324.056C923.361 344.337 820.778 568.961 621.397 404.335C489.129 286.868 457.379 161.294 327.409 113.272C153.013 61.3742 33.726 276.987 -158.807 330.116C-302.84 365.408 -240.914 333.617 -486.719 432.263C-520.394 445.488 -533.572 450.046 -565.871 460.156" stroke="#3DDEED" stroke-opacity="0.05" stroke-width="0.5" stroke-linecap="round" stroke-linejoin="round"/>
<path d="M2147.87 460.21C1948.68 405.826 1869.96 435.293 1752.13 363.248C1632.89 284.133 1526.82 141.834 1367.67 188.01C1289.34 215.015 1247.55 259.259 1175.46 298.439C1086.73 341.892 1087.11 301.505 994.547 351.827C851.611 435.354 766.124 536.753 610.087 406.097C472.7 282.582 412.032 93.4979 236.947 121.197C97.5672 151.534 -0.378873 293.423 -158.807 334.112C-223.782 348.797 -266.323 349.226 -362.339 382.545C-446.724 412.99 -476.03 431.436 -565.871 460.21" stroke="#3DDEED" stroke-opacity="0.05" stroke-width="0.5" stroke-linecap="round" stroke-linejoin="round"/>
<path d="M2147.87 460.265C2000.17 419.383 1951.23 428.479 1853.9 405.216C1720.77 369.845 1688.75 297.437 1559.9 220.381C1335.53 94.9828 1265.45 311.978 1084.99 321.261C920.209 332.657 815.177 579.18 610.087 417.904C482.183 309.165 453.849 192.567 327.404 142.082C216.952 105.89 127.448 176.481 22.1058 249.052C-193.678 395.311 -139.904 291.226 -486.724 431.654C-522.371 445.838 -533.401 449.629 -565.876 460.258" stroke="#3DDEED" stroke-opacity="0.05" stroke-width="0.5" stroke-linecap="round" stroke-linejoin="round"/>
<path d="M2147.87 460.313C1957.46 406.858 1878.11 431.95 1763.43 368.167C1652 300.147 1545.97 158.898 1390.29 189.332C1308.24 209.866 1260.96 256.205 1186.76 295.91C1093.43 341.397 1091.86 299.091 1005.85 339.918C877.455 408.361 779.727 543.827 621.402 438.034C473.244 329.072 423.688 134.911 248.262 145.649C109.089 162.598 8.73611 299.966 -147.492 339.641C-214.734 354.332 -256.582 350.463 -351.024 379.285C-436.164 406.767 -463.634 425.92 -565.871 460.313" stroke="#3DDEED" stroke-opacity="0.05" stroke-width="0.5" stroke-linecap="round" stroke-linejoin="round"/>
<path d="M2147.87 460.337C1943.35 403.061 1863.77 435.01 1740.82 354.272C1607.37 260.352 1514.97 148.42 1356.38 205.164C1274.73 238.103 1235.39 280.687 1164.15 309.563C1079.13 338.633 1078.67 297.081 983.233 352.22C853.935 432.457 756.393 552.718 598.783 433.29C463.658 322.112 405.101 133.022 225.643 162.23C86.7544 192.507 -6.90586 321.219 -170.111 348.767C-238.849 358.703 -282.105 357.55 -373.643 387.494C-453.473 414.946 -469.917 427.948 -565.871 460.343" stroke="#3DDEED" stroke-opacity="0.05" stroke-width="0.5" stroke-linecap="round" stroke-linejoin="round"/>
<path d="M2147.87 460.337C1990.5 416.938 1929.78 427.634 1831.28 399.005C1661.84 344.228 1561.69 137.869 1356.37 212.057C1276.08 244.61 1233.52 287.791 1164.14 314.416C1124.24 327.158 1113.84 324.074 1073.69 323.911C919.702 332.096 808.314 583.14 610.082 454.235C482.519 362.541 454.781 242.081 327.398 186.175C218.955 146.229 132.184 207.192 22.1006 275.116C-199.149 409.115 -186.825 313.45 -441.501 413.437C-513.023 442.096 -517.77 444.311 -565.881 460.337" stroke="#3DDEED" stroke-opacity="0.05" stroke-width="0.5" stroke-linecap="round" stroke-linejoin="round"/>
<path d="M2147.87 460.337C1995.26 418.906 1939.04 427.779 1842.58 403.176C1713.94 366.513 1677.28 289.385 1548.58 227.003C1335.07 132.34 1264.51 335.862 1084.99 326.935C917.787 322.758 812.149 589.858 610.087 466.621C482.446 379.895 455.2 258.758 327.404 201.132C220.13 160.311 132.542 218.727 33.4155 277.693C-203.026 417.252 -187.052 318.249 -430.186 409.562C-492.676 433.591 -503.644 439.784 -565.876 460.337" stroke="#3DDEED" stroke-opacity="0.05" stroke-width="0.5" stroke-linecap="round" stroke-linejoin="round"/>
<path d="M2147.87 460.337C1989.43 418 1941.51 428.775 1842.58 404.063C1664.21 354.2 1573.13 155.15 1367.67 221.679C1283.4 252.752 1235.64 299.779 1164.14 324.128C1124.46 334.987 1114.6 331.275 1073.69 329.392C916.933 331.721 801.451 601.538 598.778 471.763C475.076 384.005 445.8 262.603 316.094 211.653C210.679 177.531 129.684 232.658 22.1058 293.622C-203.424 419.606 -195.427 321.738 -441.496 414.385C-507.2 439.639 -510.28 442.138 -565.876 460.331" stroke="#3DDEED" stroke-opacity="0.05" stroke-width="0.5" stroke-linecap="round" stroke-linejoin="round"/>
<path d="M2147.87 460.337C1990.3 418.906 1939.63 428.696 1842.58 404.951C1664.44 356.161 1575.05 160.287 1367.67 228.53C1281.72 260.527 1236.49 305.918 1164.14 328.981C1124.37 338.971 1114.57 334.866 1073.69 332.132C919.019 331.444 805.529 594.82 610.082 491.386C483.068 415.031 455.277 291.709 327.398 231.053C221.119 188.01 134.255 241.423 33.4103 296.731C-207.653 427.682 -194.278 326.331 -430.191 410.691C-491.465 433.272 -502.63 439.827 -565.881 460.331" stroke="#3DDEED" stroke-opacity="0.05" stroke-width="0.5" stroke-linecap="round" stroke-linejoin="round"/>
<path d="M2147.87 460.337C1979.04 417.361 1930.17 429.982 1831.28 403.864C1709.72 367.95 1675.74 296.682 1548.58 242.129C1335.6 159.514 1265.61 358.334 1084.99 338.029C919.878 324.182 809.189 601.363 610.087 502.426C486.655 432.155 460.272 317.44 338.713 250.428C168.784 168.58 50.5584 338.277 -136.193 370.877C-231.597 384.126 -277.328 360.737 -418.877 407.763C-484.395 430.465 -495.627 437.986 -565.871 460.337" stroke="#3DDEED" stroke-opacity="0.05" stroke-width="0.5" stroke-linecap="round" stroke-linejoin="round"/>
<path d="M2147.87 460.337C1977.1 418.181 1931.01 431.642 1831.28 406.58C1708.96 372.054 1676.68 302.32 1548.58 249.728C1335.37 170.856 1265.65 367.557 1084.99 344.59C918.486 328.287 809.318 606.167 610.087 512.549C486.458 445.5 460.334 331.208 338.713 263.708C169.002 181.177 50.605 347.59 -136.193 376.974C-233.518 388.858 -277.473 364.02 -418.877 409.158C-482.102 430.284 -496.574 438.843 -565.871 460.325" stroke="#3DDEED" stroke-opacity="0.05" stroke-width="0.5" stroke-linecap="round" stroke-linejoin="round"/>
<path d="M2147.87 460.337C1979.02 419.95 1929.42 432.716 1831.28 409.296C1667.25 365.155 1574.69 186.537 1367.67 256.253C1233.83 306.587 1209.69 368.831 1084.99 351.163C919.712 332.633 808.159 610.374 610.087 522.689C486.515 459.015 460.319 344.971 338.713 276.999C169.188 193.804 50.8638 356.892 -136.193 383.088C-234.439 393.422 -278.114 367.467 -418.877 410.57C-481.931 430.857 -496.289 439.338 -565.871 460.337" stroke="#3DDEED" stroke-opacity="0.05" stroke-width="0.5" stroke-linecap="round" stroke-linejoin="round"/>
<path d="M2147.87 460.337C1981.49 421.839 1941.79 434.231 1842.58 414.566C1669.72 375.537 1582.96 200.855 1378.99 262.03C1294.78 290.574 1246.49 333.393 1175.46 356.107C1137.58 365.801 1123.21 363.706 1084.99 357.737C914.681 336.279 802.91 627.004 598.783 527.301C473.942 457.307 447.136 335.935 316.099 279.842C213.22 242.6 136.03 286.572 22.111 339.363C-209.848 444.903 -207.881 343.709 -441.491 419.129C-498.08 438.016 -508.784 443.581 -565.871 460.343" stroke="#3DDEED" stroke-opacity="0.05" stroke-width="0.5" stroke-linecap="round" stroke-linejoin="round"/>
<path d="M2147.87 460.337C1917.64 408.832 1855 447.329 1729.5 373.098C1594.43 288.498 1509.59 221.83 1356.38 279.739C1270.25 315.056 1222.88 356.741 1152.83 368.734C1075.87 376.207 1065.3 336.713 971.918 390.905C841.772 473.133 740.389 613.35 587.479 531.695C449.356 447.945 404.573 262.73 214.338 279.908C75.7139 298.873 -14.4059 399.277 -181.416 396.446C-251.768 393.85 -292.53 386.215 -373.643 402.053C-447.624 418.248 -480.176 435.867 -565.871 460.337" stroke="#3DDEED" stroke-opacity="0.05" stroke-width="0.5" stroke-linecap="round" stroke-linejoin="round"/>
<path d="M2147.87 460.337C1916.69 411.059 1854.36 449.864 1729.5 378.609C1594.34 296.797 1510.01 232.918 1356.38 290.616C1269.45 325.951 1222.83 366.314 1152.83 377.408C1076.42 383.867 1064.95 344.651 971.918 397.375C842.584 477.383 740.182 617.913 587.479 539.499C448.342 458.043 405.272 274.862 214.338 290.767C75.8433 308.628 -14.7113 406.767 -181.416 401.631C-251.344 398.094 -292.612 389.758 -373.643 404.389C-446.78 419.334 -481.16 437.026 -565.871 460.331" stroke="#3DDEED" stroke-opacity="0.05" stroke-width="0.5" stroke-linecap="round" stroke-linejoin="round"/>
<path d="M2147.87 460.337C1968.28 423.867 1920.57 440.744 1819.97 420.047C1666.78 383.505 1571.56 222.361 1356.38 302.26C1274.38 335.144 1230.5 370.726 1164.15 385.056C1124.48 390.905 1114.64 385.623 1073.7 379.122C914.832 364.032 795.819 635.025 598.783 551.191C473.642 489.032 447.41 370.467 316.099 314.283C209.426 275.454 129.379 321.442 10.8014 369.332C-210.546 456.082 -217.265 356.868 -452.8 426.578C-507.852 443.394 -513.443 446.527 -565.876 460.343" stroke="#3DDEED" stroke-opacity="0.05" stroke-width="0.5" stroke-linecap="round" stroke-linejoin="round"/>
<path d="M2147.87 460.337C1968.18 425.672 1920.48 443.068 1819.97 424.344C1666.78 390.923 1572.93 234.379 1356.38 313.891C1274.57 346.238 1230.34 380.963 1164.15 394.49C1124.38 399.904 1114.28 394.514 1073.7 387.724C914.671 371.149 795.405 637.615 598.783 557.046C473.326 496.831 447.576 379.961 316.099 324.309C209.08 285.715 127.997 331.486 10.8014 377.076C-214.641 462.075 -214.17 358.358 -464.105 431.28C-518.634 447.571 -521.667 449.194 -565.871 460.331" stroke="#3DDEED" stroke-opacity="0.05" stroke-width="0.5" stroke-linecap="round" stroke-linejoin="round"/>
<path d="M2147.87 460.337C1968.73 427.586 1935.02 444.933 1831.28 430.531C1668.44 403.429 1582.35 250.199 1367.67 321.43C1227.68 372.211 1205.81 423.028 1084.99 398.323C918.574 369.097 806.052 630.975 610.087 567.374C482.183 516.973 455.454 400.725 327.404 339.092C219.887 294.081 137.516 336.345 22.1058 380.607C-214.413 469.095 -211.887 364.763 -452.8 429.396C-509.55 445.187 -513.613 447.776 -565.876 460.331" stroke="#3DDEED" stroke-opacity="0.05" stroke-width="0.5" stroke-linecap="round" stroke-linejoin="round"/>
<path d="M2147.87 460.337C1914.2 419.974 1854.39 463.331 1729.5 403.798C1590.27 332.754 1510.28 281.979 1356.38 337.172C1266.47 371.752 1222.44 406.725 1152.83 414.656C1076.6 417.916 1064.58 379.943 971.918 426.179C839.153 499.155 733.21 638.804 576.169 557.927C443.854 480.787 397.13 311.012 203.029 332.023C67.4064 351.99 -20.3739 434.66 -181.421 422.044C-254.486 414.862 -298.109 403.447 -384.953 416.202C-454.141 427.93 -486.563 442.211 -565.871 460.343" stroke="#3DDEED" stroke-opacity="0.05" stroke-width="0.5" stroke-linecap="round" stroke-linejoin="round"/>
<path d="M2147.87 460.337C1914.16 422.437 1854.43 467.037 1729.5 410.896C1588.9 342.997 1509.86 295.644 1356.38 349.479C1268.65 382.382 1221.71 417.004 1152.83 424.151C1076.42 426.74 1064.72 389.402 971.918 433.531C838.78 503.452 733.018 639.069 576.169 560.517C443.01 484.982 397.482 319.323 203.029 340.172C67.4582 359.873 -20.6171 440.521 -181.421 426.608C-254.015 418.876 -297.747 407.039 -384.953 418.682C-455.228 429.644 -484.141 442.663 -565.871 460.343" stroke="#3DDEED" stroke-opacity="0.05" stroke-width="0.5" stroke-linecap="round" stroke-linejoin="round"/>
<path d="M2147.87 460.337C1956.68 431.388 1930.48 453.806 1819.97 442.796C1667.99 423.137 1578.38 286.524 1356.38 362.149C1268.3 394.188 1221.54 427.284 1152.83 433.742C1110.88 434.829 1103.79 427.332 1062.38 421.664C908.071 412.302 783.008 649.572 587.478 566.661C464.713 506.669 438.041 398.854 304.795 354.743C203.629 327.013 130.756 364.72 10.8065 405.192C-213.326 477.968 -216.297 378.259 -464.1 436.615C-518.934 449.931 -520.089 451.035 -565.865 460.343" stroke="#3DDEED" stroke-opacity="0.05" stroke-width="0.5" stroke-linecap="round" stroke-linejoin="round"/>
<path d="M2147.87 460.337C1961.82 434.177 1929.58 456.13 1819.97 447.848C1669.07 432.119 1579.54 301.052 1356.38 374.819C1268.29 405.868 1221.38 437.563 1152.83 443.34C1111 444.082 1103.87 436.772 1062.38 430.833C907.901 420.01 782.765 647.985 587.478 567.144C464.775 508.667 437.741 403.574 304.795 361.292C202.221 334.353 126.61 373.316 10.8065 411.174C-212.11 481.27 -217.022 383.456 -464.1 438.046C-519.266 450.619 -519.794 451.561 -565.865 460.337" stroke="#3DDEED" stroke-opacity="0.05" stroke-width="0.5" stroke-linecap="round" stroke-linejoin="round"/>
<path d="M2147.87 460.337C1912.11 429.74 1854.85 478.855 1729.5 433.495C1587.5 377.487 1511.32 337.812 1356.38 387.494C1268.9 417.342 1220.95 447.873 1152.83 452.937C1076.44 453.679 1064.9 419.135 971.918 455.852C842.662 512.784 738.8 628.766 587.478 567.627C443.756 500.905 407.627 346.208 214.338 360.489C75.3309 375.941 -15.9536 456.83 -181.416 439.428C-253.735 430.428 -297.685 417.934 -384.948 426.306C-454.099 434.394 -485.021 445.995 -565.865 460.343" stroke="#3DDEED" stroke-opacity="0.05" stroke-width="0.5" stroke-linecap="round" stroke-linejoin="round"/>
<path d="M2147.87 460.337C1909.5 431.968 1856.52 483.286 1729.5 441.028C1586.29 388.762 1511.64 351.924 1356.38 400.164C1266.73 429.71 1220.99 458.116 1152.83 462.528C1076.57 462.643 1064.88 429.052 971.918 463.289C842.683 516.562 738.66 627.661 587.478 568.104C446.111 504.189 406.861 352.944 214.338 367.66C75.01 383.317 -16.0002 462.142 -181.416 443.696C-253.813 434.249 -297.618 421.568 -384.948 428.841C-453.685 435.988 -485.016 447.021 -565.865 460.337" stroke="#3DDEED" stroke-opacity="0.05" stroke-width="0.5" stroke-linecap="round" stroke-linejoin="round"/>
<path d="M2147.87 460.337C1918.6 435.342 1860.07 483.274 1740.82 452.037C1634.26 419.902 1539.9 361.684 1367.67 409.417C1275.03 437.014 1224.25 467.707 1152.83 471.636C1076.68 471.196 1065.04 438.891 971.918 470.146C842.879 518.898 738.634 623.515 587.478 565.152C445.691 502.553 406.555 357.284 214.338 372.996C74.8599 389.215 -16.1089 465.914 -181.416 447.142C-253.461 437.605 -297.545 424.924 -384.948 431.292C-453.323 437.629 -484.767 447.987 -565.865 460.343" stroke="#3DDEED" stroke-opacity="0.05" stroke-width="0.5" stroke-linecap="round" stroke-linejoin="round"/>
<path d="M2147.87 460.337C1909.13 436.591 1857.05 490.626 1729.5 456.257C1589.13 413.968 1515.1 380.317 1356.38 425.37C1267.57 452.013 1220.42 477.461 1152.83 480.509C1076.94 479.519 1065.15 448.699 971.918 476.725C842.703 520.721 738.582 617.859 587.478 560.553C445.215 499.155 406.203 360.513 214.338 377.444C74.3371 394.49 -16.202 469.005 -181.416 450.184C-254.243 440.545 -297.592 428.177 -384.948 433.688C-453.711 439.332 -483.101 448.736 -565.865 460.337" stroke="#3DDEED" stroke-opacity="0.05" stroke-width="0.5" stroke-linecap="round" stroke-linejoin="round"/>
<path d="M2147.87 460.337C1986.84 445.657 1960.75 461.2 1842.58 471.479C1714.33 480.479 1702.44 442.639 1559.9 421.718C1337.76 393.971 1253.83 517.878 1084.99 479.652C916.684 444.215 803.278 616.833 610.082 563.812C478.937 521.397 452.441 433.217 327.399 391.375C224.747 362.143 148.054 394.188 33.4103 428.974C-202.793 498.605 -207.72 411.427 -441.496 441.885C-495.917 449.532 -505.761 452.635 -565.876 460.337" stroke="#3DDEED" stroke-opacity="0.05" stroke-width="0.5" stroke-linecap="round" stroke-linejoin="round"/>
<path d="M2147.87 460.337C1916.48 441.462 1862.05 494.084 1740.82 473.846C1633.55 451.796 1540.76 403.429 1356.38 450.553C1266.08 474.842 1219.94 496.547 1152.83 498.255C1077.52 496.191 1065.48 468.317 971.918 489.883C842.667 524.198 738.541 606.596 587.478 551.342C443.538 492.099 405.36 366.942 214.338 386.341C74.187 404.872 -16.5178 475.167 -181.416 456.275C-405.481 426.698 -345.662 434.817 -565.865 460.343" stroke="#3DDEED" stroke-opacity="0.05" stroke-width="0.5" stroke-linecap="round" stroke-linejoin="round"/>
<path d="M2147.87 460.337C1981.45 448.337 1946.94 467.725 1831.28 481.584C1669.31 497.966 1600.99 404.015 1356.37 463.144C1266.33 485.96 1219.57 506.084 1152.83 507.122C1112.48 505.734 1104.58 500.271 1062.38 492.69C905.188 471.739 781.414 616.308 587.473 546.737C461.773 496.251 434.501 417.711 304.79 392.202C197.465 375.815 119.622 415.351 -0.508258 446.225C-214.004 497.923 -189.242 412.586 -520.642 455.267C-537.392 457.307 -540.71 457.723 -565.871 460.337" stroke="#3DDEED" stroke-opacity="0.05" stroke-width="0.5" stroke-linecap="round" stroke-linejoin="round"/>
<path d="M2147.87 460.337C1923.36 445.917 1870.37 496.348 1752.13 488.797C1657.58 478.892 1558.78 431.364 1367.67 472.379C1272.39 494.042 1222.99 514.764 1152.83 515.204C1078.4 512.162 1065.97 487.457 971.918 502.227C842.238 526.443 738.582 592.948 587.478 539.698C442.032 482.773 403.952 371.849 214.338 393.699C74.3112 413.721 -17.3408 479.64 -181.416 461.345C-403.457 432.909 -342.887 439.561 -565.865 460.343" stroke="#3DDEED" stroke-opacity="0.05" stroke-width="0.5" stroke-linecap="round" stroke-linejoin="round"/>
<path d="M2147.87 460.337C1983.96 450.963 1956.04 468.679 1831.28 489.286C1670.16 513.261 1610.57 432.203 1356.37 486.419C1260.4 507.738 1210.84 525.683 1141.53 522.417C1101.56 518.675 1092.2 512.874 1051.06 506.718C894.474 489.883 770.441 601.411 576.164 527.294C454.77 476.743 422.927 408.445 293.48 393.723C185.467 385.617 107.433 425.346 -11.8178 452.901C-207.736 494.978 -194.796 422.968 -520.648 456.287C-537.568 457.923 -541.098 458.273 -565.876 460.331" stroke="#3DDEED" stroke-opacity="0.05" stroke-width="0.5" stroke-linecap="round" stroke-linejoin="round"/>
<path d="M2147.87 460.337C1986.45 452.237 1957.74 469.27 1831.28 492.998C1712.72 513.418 1703.77 485.423 1548.58 479.646C1361.04 475.312 1261.61 536.493 1141.53 530.101C1102.76 526.365 1091.53 520.733 1051.06 514.353C948.382 501.925 875.525 535.998 757.082 545.457C514.672 559.756 472.964 411.904 293.48 395.021C118.344 384.989 21.904 490.668 -204.04 461.768C-382.815 437.267 -388.353 447.124 -565.876 460.343" stroke="#3DDEED" stroke-opacity="0.05" stroke-width="0.5" stroke-linecap="round" stroke-linejoin="round"/>
<path d="M2147.87 460.337C2001.73 454.041 1973.74 465.492 1842.58 494.332C1679.39 528.61 1626.23 463.627 1378.99 505.269C1205.09 536.053 1194.28 551.372 1073.69 526.021C958.538 503.845 882.812 535.485 757.081 540.369C520.035 545.149 469.641 415.314 304.79 397.134C131.569 384.247 23.11 488.809 -192.731 464.858C-387.681 441.124 -361.49 447.209 -565.871 460.331" stroke="#3DDEED" stroke-opacity="0.05" stroke-width="0.5" stroke-linecap="round" stroke-linejoin="round"/>
<path d="M2147.87 460.337C1993.45 454.766 1970.01 468.19 1831.28 500.416C1677.52 534.121 1630.47 474.057 1356.37 520.836C1105.26 564.857 1148.89 541.105 1028.45 526.558C917.264 516.092 836.347 542.415 711.848 533.24C480.728 511.54 453.564 390.229 259.556 397.894C146.18 405.59 64.5337 447.915 -57.0461 465.751C-143.714 476.749 -183.486 466.904 -271.882 456.957C-381.05 445.609 -426.656 452.677 -565.871 460.331" stroke="#3DDEED" stroke-opacity="0.05" stroke-width="0.5" stroke-linecap="round" stroke-linejoin="round"/>
<path d="M2147.87 460.337C2006.81 455.937 1976.5 465.588 1842.58 500.169C1679.31 541.081 1647.67 485.7 1367.67 529.142C1111.6 570.084 1153.25 550.606 1028.45 533.27C915.841 520.009 836.026 538.805 711.848 525.725C472.804 496.414 448.492 384.169 248.247 399.675C136.015 411.192 51.3711 452.315 -68.3556 467.303C-153.082 476.2 -189.806 466.27 -283.192 457.247C-383.478 448.434 -432.376 454.054 -565.876 460.343" stroke="#3DDEED" stroke-opacity="0.05" stroke-width="0.5" stroke-linecap="round" stroke-linejoin="round"/>
<path d="M2147.87 460.337C1999.38 456.323 1974.13 466.977 1831.28 505.148C1667.49 547.129 1701.99 488.036 1299.84 549.145C1137.66 572.782 1123.37 554.644 1028.45 539.771C913.776 523.576 835.25 534.84 711.848 517.878C468.42 480.908 444.47 383.426 248.247 400.339C138.68 412.333 59.3474 448.977 -57.0512 465.516C-142.435 476.103 -181.571 467.991 -271.888 459.438C-373.296 450.51 -419.27 454.482 -565.876 460.349" stroke="#3DDEED" stroke-opacity="0.05" stroke-width="0.5" stroke-linecap="round" stroke-linejoin="round"/>
<path d="M2147.87 460.337C2000.76 456.963 1971.5 467.502 1831.28 507.297C1712.83 539.759 1716 518.633 1525.97 531.037C1422.81 538.491 1364.09 550.074 1277.22 560.861C1129.24 578.13 1115.78 558.465 994.542 541.051C870.701 524.506 785.907 528.466 655.316 498.43C435.495 445.054 407.482 369.133 191.714 409.677C75.3258 433.199 -4.02793 467.067 -124.888 470.248C-279.201 471.196 -176.467 448.428 -565.876 460.343" stroke="#3DDEED" stroke-opacity="0.05" stroke-width="0.5" stroke-linecap="round" stroke-linejoin="round"/>
<path d="M2147.87 460.337C2011.45 457.772 1974.08 465.969 1842.58 506.054C1718.57 543.308 1733.05 524.578 1537.29 539.355C1420.95 548.759 1355.19 561.555 1265.91 570.464C1128.66 582.941 1110.95 565.714 971.913 542.789C841.446 521.929 750.353 516.816 610.087 477.123C408.517 418.344 376.302 365.608 135.181 423.053C-198.595 504.382 -129.93 455.744 -407.572 457.216C-435.585 457.506 -425.673 457.367 -565.876 460.337" stroke="#3DDEED" stroke-opacity="0.05" stroke-width="0.5" stroke-linecap="round" stroke-linejoin="round"/>
<path d="M2147.87 460.337C2004.85 458.236 1969.7 467.496 1831.28 511.595C1716.86 547.02 1727.73 529.371 1514.68 550.63C1340.22 568.635 1244.72 590.311 1130.22 578.142C1111 575.649 766.621 510.653 632.702 474.057C444.061 421.477 407.477 392.619 282.176 399.15C168.085 407.504 86.506 441.275 -34.4268 461.146C-188.75 484.342 -143.325 454.096 -565.871 460.331" stroke="#3DDEED" stroke-opacity="0.05" stroke-width="0.5" stroke-linecap="round" stroke-linejoin="round"/>
<path d="M2147.87 460.337C1906.37 457.597 1874.3 513.466 1740.82 535.703C1699.52 541.34 1684.47 540.417 1582.51 550.25C1148.75 594.723 1250.22 628.114 711.853 487.137C427.87 411.137 382.471 372.507 169.105 416.298C-233.916 502.167 30.8275 454.114 -565.871 460.337" stroke="#3DDEED" stroke-opacity="0.05" stroke-width="0.5" stroke-linecap="round" stroke-linejoin="round"/>
<path d="M2147.87 460.337C2003.24 458.894 1967.09 467.031 1831.28 512.705C1735.51 544.419 1741.33 536.56 1582.51 555.175C1338.54 584.987 1224.97 612.934 1062.38 579.621C921.897 549.018 656.485 455.683 451.784 410.974C222.682 364.044 89.9636 460.21 -136.198 467.013C-232.741 468.48 -232.643 458.424 -565.876 460.331" stroke="#3DDEED" stroke-opacity="0.05" stroke-width="0.5" stroke-linecap="round" stroke-linejoin="round"/>
<path d="M2147.87 460.337C1893.44 458.146 1873.27 515.784 1729.5 540.839C986.576 653.387 1145.42 597.101 621.397 445.585C211.321 329.47 138.572 465.914 -170.116 465.806C-237.897 465.136 -317.421 460.053 -565.871 460.331" stroke="#3DDEED" stroke-opacity="0.05" stroke-width="0.5" stroke-linecap="round" stroke-linejoin="round"/>
<path d="M2147.87 460.337C1894.96 458.49 1886.47 508.347 1740.82 540.453C1740.61 540.495 1427.31 591.3 1345.06 600.391C1085.08 627.317 1002.19 578.341 802.31 499.806C388.041 340.287 281.078 400.924 -0.508258 449.17C-157.399 474.878 -208.134 460.953 -565.871 460.337" stroke="#3DDEED" stroke-opacity="0.05" stroke-width="0.5" stroke-linecap="round" stroke-linejoin="round"/>
<path d="M2147.87 460.337C1890.51 459.039 1872.83 514.045 1729.5 544.437C1239.23 638.098 1125.48 639.727 904.081 541.678C711.041 455.068 592.442 399.09 383.947 395.667C254.354 395.16 163.644 418.405 33.4206 441.831C-169.392 477.377 -314.165 461.888 -565.871 460.343" stroke="#3DDEED" stroke-opacity="0.05" stroke-width="0.5" stroke-linecap="round" stroke-linejoin="round"/>
<path d="M2147.87 460.337C1889.75 458.925 1875.11 511.547 1729.5 544.214C1056.49 681.539 1069.66 616.06 768.391 478.548C436.996 330.086 211.714 418.465 -45.7364 451.706C-216.214 472.433 -527.092 460.669 -565.876 460.331" stroke="#3DDEED" stroke-opacity="0.05" stroke-width="0.5" stroke-linecap="round" stroke-linejoin="round"/>
<path d="M2147.87 460.337C1878.56 458.635 1875.81 511.903 1718.2 545.843C1393.02 611.515 1173.06 686.923 915.39 552.748C684.275 431.002 620.579 392.202 406.55 395.317C119.167 401.359 100.492 459.365 -373.654 464.23C-482.21 464.822 -489.566 461.17 -565.881 460.337" stroke="#3DDEED" stroke-opacity="0.05" stroke-width="0.5" stroke-linecap="round" stroke-linejoin="round"/>
<path d="M2147.87 460.337C1875.67 458.448 1878.85 508.752 1718.2 545.161C1472.2 597.825 1184.19 692.645 960.613 580.393C766.528 479.447 673.716 388.768 451.784 393.512C52.8308 404.836 111.874 469.138 -565.876 460.331" stroke="#3DDEED" stroke-opacity="0.05" stroke-width="0.5" stroke-linecap="round" stroke-linejoin="round"/>
<path d="M2147.87 460.337C1873.79 458.068 1882.55 505.408 1718.2 544.485C1494.52 594.596 1400.53 633.679 1231.98 637.567C1071.31 639.408 1026.44 620.394 960.613 585.234C767.817 478.306 676.848 379.11 451.784 391.925C-55.25 423.831 28.4464 469.385 -565.871 460.337" stroke="#3DDEED" stroke-opacity="0.05" stroke-width="0.5" stroke-linecap="round" stroke-linejoin="round"/>
<path d="M2147.87 460.337C2020.08 459.498 1975.11 455.744 1842.58 503.114C1711.06 551.36 1757.87 531.339 1605.12 572.021C1436.96 618.016 1338.25 648.775 1164.14 642.558C1058.32 637.947 1027.53 635.943 892.756 547.4C526.184 304.511 606.33 392.945 -260.578 459.582C-440.072 471.938 -470.611 461.973 -565.876 460.331" stroke="#3DDEED" stroke-opacity="0.05" stroke-width="0.5" stroke-linecap="round" stroke-linejoin="round"/>
<path d="M2147.87 460.337C2021.19 459.426 1975.86 454.102 1842.58 500.851C1698.41 552.579 1752.46 529.691 1616.44 567.621C1440.5 617.702 1346.46 653.2 1164.14 648.528C1057.69 644.961 1026.96 643.391 892.756 550.889C604.942 350.717 569.683 380.68 372.627 400.255C-541.103 487.59 -344.994 464.339 -565.871 460.337" stroke="#3DDEED" stroke-opacity="0.05" stroke-width="0.5" stroke-linecap="round" stroke-linejoin="round"/>
<path d="M2147.87 460.337C2059.18 459.625 2016.28 454.772 1933.05 472.029C1846.82 491.7 1811.31 513.605 1729.5 535.673C1507.18 592.719 1434.26 631.591 1288.52 649.192C1064.66 673.179 1005.96 632.852 926.69 578.758C801.621 491.26 684.809 387.024 530.936 385.448C465.159 386.909 457.099 396.313 327.404 407.383C223.769 415.803 163.934 416.902 -0.508258 431.147C-510.021 478.089 -281.396 465.643 -565.871 460.337" stroke="#3DDEED" stroke-opacity="0.05" stroke-width="0.5" stroke-linecap="round" stroke-linejoin="round"/>
<path d="M2147.87 460.337C2033.22 459.329 1981.96 450.649 1853.9 492.086C1581.47 583.134 1892.9 478.029 1469.44 611.237C1341.43 650.834 1253.29 665.815 1107.61 658.844C907.176 645.19 775.151 382.991 530.941 385.164C448.129 388.732 450.158 405.198 236.953 415.954C-201.462 436.036 -218.59 457.868 -373.643 465.105C-465.714 468.492 -487.557 461.846 -565.871 460.343" stroke="#3DDEED" stroke-opacity="0.05" stroke-width="0.5" stroke-linecap="round" stroke-linejoin="round"/>
<path d="M2147.87 460.337C2039.38 459.48 1987.1 449.575 1865.19 486.129C1817.45 501.153 1796.84 509.905 1752.13 523.582C1451.61 610.308 1439.94 630.329 1311.13 654.033C1238.63 666.334 1109.13 675.123 1039.77 653.828C938.703 616.754 862.326 525.345 734.462 445.971C549.264 336.025 507.954 405.693 270.861 416.763C137.148 422.316 46.899 418.194 -136.203 438.293C-243.155 450.384 -286.065 460.271 -373.654 465.003C-465.264 468.932 -486.149 461.9 -565.881 460.331" stroke="#3DDEED" stroke-opacity="0.05" stroke-width="0.5" stroke-linecap="round" stroke-linejoin="round"/>
<path d="M2147.87 460.337C1968.43 458.834 1982.05 430.223 1469.43 612.668C1340.81 657.805 1254.29 675.998 1107.6 671.936C957.389 664.427 883.045 531.453 711.848 432.016C535.889 335.355 506.106 414.065 248.247 419.926C123.525 422.147 32.696 416.721 -124.893 434.074C-228.088 445.965 -266.536 456.275 -351.039 463.397C-452.593 470.815 -483.297 462.003 -565.876 460.337" stroke="#3DDEED" stroke-opacity="0.05" stroke-width="0.5" stroke-linecap="round" stroke-linejoin="round"/>
<path d="M2147.87 460.337C2037.09 459.353 1984.41 446.315 1853.9 484.541C1603.48 561.048 1654.08 541.207 1548.58 581.329C1458.74 615.873 1395.57 641.653 1311.13 660.642C1238.87 675.793 1109.87 688.963 1039.77 667.161C937.751 628.796 862.046 530.524 734.462 447.48C545.113 329.953 504.015 416.902 282.17 423.119C162.061 425.419 74.332 414.952 -68.3556 425.642C-170.246 434.056 -216.048 445.072 -294.502 456.311C-430.543 474.733 -472.241 462.19 -565.876 460.337" stroke="#3DDEED" stroke-opacity="0.05" stroke-width="0.5" stroke-linecap="round" stroke-linejoin="round"/>
<path d="M2147.87 460.337C2041.39 459.335 1988.25 446.128 1865.19 478.572C1471.92 588.439 1475.94 622.06 1311.13 663.147C1238.3 680.163 1110.75 695.76 1039.77 673.644C937.332 634.875 861.855 534.061 734.462 449.985C543.819 330.188 500.64 424.881 282.17 427.604C165.673 427.821 78.4625 414.3 -57.046 422.105C-154.868 428.642 -204.796 440.515 -283.192 453.305C-427.536 475.819 -472.329 462.154 -565.876 460.331" stroke="#3DDEED" stroke-opacity="0.05" stroke-width="0.5" stroke-linecap="round" stroke-linejoin="round"/>
<path d="M2147.87 460.337C2040.37 459.269 1988.01 445.229 1865.19 475.91C1486.6 576.554 1503.27 610.187 1322.45 662.556C1248.94 682.668 1123.74 701.198 1051.06 683.652C896.519 635.424 768.536 400.617 564.859 392.498C463.223 393.108 447.394 432.601 282.176 432.094C48.3949 428.497 49.8079 391.412 -271.882 449.937C-425.937 477.045 -468.049 462.19 -565.871 460.337" stroke="#3DDEED" stroke-opacity="0.05" stroke-width="0.5" stroke-linecap="round" stroke-linejoin="round"/>
<path d="M2147.87 460.337C2040.59 459.214 1988.23 444.215 1865.19 473.248C1506.4 563.716 1505.67 607.242 1322.45 664.783C1249.57 686.501 1125.01 707.88 1051.06 690.146C896.058 641.671 768.935 401.099 564.859 395.444C462.151 397.393 444.361 439.664 282.176 436.585C47.2976 428.992 47.5149 386.154 -271.882 448.416C-425.662 477.419 -467.888 462.166 -565.871 460.343" stroke="#3DDEED" stroke-opacity="0.05" stroke-width="0.5" stroke-linecap="round" stroke-linejoin="round"/>
<path d="M2147.87 460.337C2037.62 459.148 1984.61 442.108 1853.9 473.278C1473.53 569.203 1521.55 602.853 1311.13 670.656C1237.39 693.201 1113.15 716.077 1039.77 693.092C886.451 633.969 759.152 392.136 553.555 398.745C454.781 406.484 432.239 448.506 270.871 440.509C55.6879 426.897 21.0654 384.386 -260.573 444.535C-423.369 478.385 -463.007 462.202 -565.871 460.337" stroke="#3DDEED" stroke-opacity="0.05" stroke-width="0.5" stroke-linecap="round" stroke-linejoin="round"/>
<path d="M2147.87 460.337C2042.23 459.178 1988.82 442.543 1865.19 468.117C1527.86 543.356 1514.43 598.32 1322.45 668.127C1248.86 693.653 1127.01 719.976 1051.06 702.007C896.192 653.598 770.337 404.244 564.859 403.538C460.179 408.228 439.868 454.977 282.176 446.834C170.384 439.205 88.6747 413.636 -34.4268 411.723C-238.756 411.62 -254.486 475.469 -531.947 461.236C-543.619 460.802 -544.302 460.711 -565.871 460.337" stroke="#3DDEED" stroke-opacity="0.05" stroke-width="0.5" stroke-linecap="round" stroke-linejoin="round"/>
<path d="M2147.87 460.337C1971.74 458.375 2001.11 431.557 1752.13 493.233C1676.6 511.378 1646.52 517.45 1559.9 557.04C1473.85 597.276 1221.45 747.247 1051.06 707.192C894.919 658.493 771.171 407.256 564.854 409.091C459.584 415.103 437.555 463.566 282.17 452.828C169.561 443.008 88.4212 413.962 -34.4319 409.972C-235.966 406.804 -266.334 477.298 -520.648 461.774C-536.755 460.965 -539.887 460.772 -565.876 460.343" stroke="#3DDEED" stroke-opacity="0.05" stroke-width="0.5" stroke-linecap="round" stroke-linejoin="round"/>
<path d="M2147.87 460.337C2041.08 459.148 1988.81 441.541 1865.19 463.252C1660.44 502.474 1595.16 536.174 1548.58 558.519C1461.16 601.483 1202.45 759.452 1039.77 708.846C884.101 648.733 762.087 400.973 553.555 415.411C451.473 427.211 426.147 474.075 270.871 457.609C162.014 444.13 82.9345 414.005 -34.4268 408.204C-225.629 402.252 -276.354 476.284 -520.642 461.707C-536.9 460.916 -540.13 460.729 -565.871 460.325" stroke="#3DDEED" stroke-opacity="0.05" stroke-width="0.5" stroke-linecap="round" stroke-linejoin="round"/>
<path d="M2147.87 460.337C2040.48 459.142 1989.15 440.974 1865.19 460.82C1666.25 495.829 1601.14 528.194 1537.29 560.408C1440.57 610.121 1186.76 770.818 1028.45 709.661C873.744 638.448 752.465 395.691 542.24 422.546C444.957 439.247 414.501 484.095 259.556 461.762C150.062 444.07 70.9158 411.355 -45.7416 405.928C-234.537 400.991 -257.617 474.123 -531.957 461.128C-543.8 460.729 -544.209 460.657 -565.881 460.331" stroke="#3DDEED" stroke-opacity="0.05" stroke-width="0.5" stroke-linecap="round" stroke-linejoin="round"/>
<path d="M2147.87 460.337C2038.5 459.1 1984.74 439.235 1853.9 460.198C1663.92 493.306 1611.37 518.391 1537.29 556.756C1440.3 607.996 1187.38 776.25 1028.45 714.852C873.154 643.21 753.448 398.794 542.24 428.37C447.105 445.875 415.293 489.962 270.866 469.168C98.944 440.919 2.2868 369.187 -215.35 423.566C-433.287 479.912 -406.578 462.57 -565.871 460.337" stroke="#3DDEED" stroke-opacity="0.05" stroke-width="0.5" stroke-linecap="round" stroke-linejoin="round"/>
<path d="M2147.87 460.337C2038.73 459.142 1984.53 439.217 1853.9 458.176C1666.71 487.952 1613.5 512.959 1537.29 553.099C1434.7 608.298 1197.87 771.15 1039.77 722.33C883.196 661.898 764.395 410.6 553.555 433.241C452.353 448.73 423.404 496.867 282.181 477.576C105.543 449.213 7.74231 364.485 -215.339 421.405C-434.451 479.435 -405.967 462.444 -565.871 460.337" stroke="#3DDEED" stroke-opacity="0.05" stroke-width="0.5" stroke-linecap="round" stroke-linejoin="round"/>
<path d="M2147.87 460.337C2041.05 459.202 1989.02 440.551 1865.19 454.772C1672.88 479.791 1608.25 511.492 1537.29 549.441C1424.08 611.376 1186.6 781.731 1028.45 720.767C872.372 648.92 755.829 406.176 542.24 441.674C447.27 461.52 411.814 507.358 270.866 482.453C88.2917 445.899 1.6553 360.544 -226.654 422.304C-428.442 478.837 -420.926 462.124 -565.871 460.337" stroke="#3DDEED" stroke-opacity="0.05" stroke-width="0.5" stroke-linecap="round" stroke-linejoin="round"/>
<path d="M2147.87 460.337C2062.57 459.462 1797.55 408.675 1548.58 539.65C1428.32 604.93 1212.31 767.999 1051.06 731.409C895.39 683.519 780.948 435.746 576.164 443.835C465.422 453.589 439.304 509.174 304.79 494.779C191.398 479.169 109.224 428.485 -11.8127 405.319C-208.849 372.199 -274.269 471.48 -486.719 463.162C-524.39 461.267 -526.88 460.772 -565.871 460.331" stroke="#3DDEED" stroke-opacity="0.05" stroke-width="0.5" stroke-linecap="round" stroke-linejoin="round"/>
<path d="M2147.87 460.337C2037.61 459.245 1984.03 439.356 1853.9 452.363C1674.1 472.699 1618.71 497.247 1537.29 542.125C1418.16 609.481 1197.25 779.045 1039.77 730.739C885.509 671.435 771.243 430.127 564.859 451.235C458.393 467.055 427.984 520.564 293.485 500.277C183.733 480.407 104.172 429.716 -11.8127 404.86C-208.243 367.612 -273.451 470.628 -486.719 463.011C-525.218 461.188 -526.797 460.741 -565.871 460.337" stroke="#3DDEED" stroke-opacity="0.05" stroke-width="0.5" stroke-linecap="round" stroke-linejoin="round"/>
<path d="M2147.87 460.337C2049.34 459.395 1786.96 407.787 1559.9 526.039C1426.61 598.055 1214.78 773.872 1051.06 737.004C895.426 689.344 781.983 442.144 576.164 456.323C464.755 469.3 436.302 526.347 304.79 509.186C194.664 491.109 116.372 437.617 -0.508204 407.081C-201.374 359.469 -267.493 466.313 -475.414 463.222C-518.945 461.798 -513.929 460.832 -565.876 460.331" stroke="#3DDEED" stroke-opacity="0.05" stroke-width="0.5" stroke-linecap="round" stroke-linejoin="round"/>
<path d="M2147.87 460.337C2036.67 459.347 1776.53 405.337 1548.58 529.039C1419.27 601.713 1200.28 782.781 1039.77 733.545C885.168 674.187 773.215 435.493 564.859 463.391C456.37 482.779 420.733 540.64 282.176 512.205C108.825 471.202 3.89135 354.121 -204.04 407.703C-414.565 465.89 -339.849 462.311 -565.871 460.337" stroke="#3DDEED" stroke-opacity="0.05" stroke-width="0.5" stroke-linecap="round" stroke-linejoin="round"/>
<path d="M2147.87 460.337C2031.79 459.365 1775.34 407.051 1559.9 519.834C1420.26 595.827 1228.65 763.647 1062.38 739.267C902.259 702.961 789.483 444.843 576.169 467.345C462.042 484.638 428.885 545.97 293.485 521.729C179.095 497.259 96.0505 433.066 -23.1172 402.216C-218.197 357.35 -259.651 471.83 -520.637 461.164C-537.154 460.645 -540.503 460.536 -565.865 460.331" stroke="#3DDEED" stroke-opacity="0.05" stroke-width="0.5" stroke-linecap="round" stroke-linejoin="round"/>
<path d="M2147.87 460.337C1997.18 459.148 1964.86 430.012 1740.82 458.375C1495.14 491.241 1381.29 684.334 1152.83 734.378C1075.43 749.167 1039.05 742.334 971.918 695.651C840.612 598.194 743.142 452.122 576.169 472.825C443.585 495.273 404.956 583.315 203.029 499.33C57.2873 436.133 -34.463 363.966 -192.725 400.852C-267.131 420.077 -313.332 442.935 -396.257 456.902C-463.644 466.675 -480.14 460.953 -565.871 460.337" stroke="#3DDEED" stroke-opacity="0.05" stroke-width="0.5" stroke-linecap="round" stroke-linejoin="round"/>
<path d="M2147.87 460.337C2004.66 459.305 1957.85 431.726 1752.13 454.615C1489.03 485.362 1386.55 681.98 1152.83 734.016C1075.91 748.961 1039.38 742.141 971.913 695.422C839.008 597.228 743.8 454.428 576.164 478.3C443.041 503.205 401.995 591.838 203.024 505.269C58.0275 439.422 -34.551 362.179 -192.73 398.878C-266.846 418.055 -313.063 441.517 -396.262 456.184C-462.971 466.361 -479.716 460.898 -565.876 460.337" stroke="#3DDEED" stroke-opacity="0.05" stroke-width="0.5" stroke-linecap="round" stroke-linejoin="round"/>
<path d="M2147.87 460.337C2001.03 459.359 1950.25 431.056 1740.82 453.498C1492.57 482.423 1374.2 689.995 1141.53 735.875C1074.06 747.114 1036.44 742.623 960.619 686.875C828.159 584.552 733.903 451.452 564.859 486.087C436.054 517.782 390.996 600.397 191.719 505.837C45.1909 433.73 -43.8524 358.334 -204.035 399.832C-278.865 420.988 -325.563 444.136 -407.567 457.277C-468.266 465.474 -482.024 460.808 -565.871 460.337" stroke="#3DDEED" stroke-opacity="0.05" stroke-width="0.5" stroke-linecap="round" stroke-linejoin="round"/>
<path d="M2147.87 460.337C1999.51 459.426 1934.45 430.905 1729.5 453.384C1563.13 474.172 1467.36 574.907 1311.13 666.443C1103.23 784.562 1024.16 732.471 949.304 675.002C821.611 572.794 728.562 453.209 564.864 490.246C437.648 524.138 387.999 607.948 191.724 511.861C52.5201 441.022 -39.8876 360.471 -192.725 395.227C-269.921 415.055 -319.75 441.927 -407.562 456.625C-467.64 465.184 -481.755 460.766 -565.865 460.331" stroke="#3DDEED" stroke-opacity="0.05" stroke-width="0.5" stroke-linecap="round" stroke-linejoin="round"/>
<path d="M2147.87 460.337C1972.9 459.347 1757.3 403.755 1559.9 506.458C1414.33 585.482 1216.15 767.86 1051.06 729.103C894.5 679.921 789.09 447.68 576.164 491.477C461.934 519.804 420.391 582.53 293.48 557.119C181.077 529.787 103.711 456.402 -11.8179 408.705C-208.305 333.852 -273.119 465.57 -498.034 461.454C-536.579 460.452 -532.941 460.542 -565.881 460.337" stroke="#3DDEED" stroke-opacity="0.05" stroke-width="0.5" stroke-linecap="round" stroke-linejoin="round"/>
<path d="M2147.87 460.337C1948.72 459.347 1750.98 401.305 1548.58 510.508C1407.2 589.942 1202.26 773.498 1039.77 722.071C879.158 659.363 779.266 432.33 553.555 501.804C449.475 537.519 399.33 594.831 270.871 557.988C158.137 521.071 79.8186 443.569 -34.4268 401.099C-219.299 339.164 -267.255 466.645 -520.642 460.82C-540.379 460.452 -538.024 460.5 -565.871 460.343" stroke="#3DDEED" stroke-opacity="0.05" stroke-width="0.5" stroke-linecap="round" stroke-linejoin="round"/>
<path d="M2147.87 460.337C1935.05 459.389 1748.13 401.425 1548.58 508.414C1407.14 587.389 1202.55 770.516 1039.77 718.576C878.682 655.379 780.71 431.491 553.555 506.066C451.116 543.217 402.104 597.524 282.181 568.074C169.188 535.341 92.0806 455.888 -23.1172 406.188C-211.038 331.77 -277.633 463.621 -498.023 461.206C-537.283 460.415 -533.557 460.488 -565.871 460.331" stroke="#3DDEED" stroke-opacity="0.05" stroke-width="0.5" stroke-linecap="round" stroke-linejoin="round"/>
<path d="M2147.87 460.337C1990.89 459.721 1897.78 434.002 1729.5 448.036C1564.71 464.737 1467.07 565.617 1311.13 655.59C1098.51 774.457 1018.2 713.065 949.304 661.499C816.502 558.289 729.768 454.814 564.864 506.392C437.291 550.938 376.374 637.349 191.724 536.065C51.5109 455.629 -40.519 356.336 -192.725 388.635C-266.567 406.894 -311.168 432.921 -396.257 451.814C-461.511 464.689 -484.597 460.675 -565.871 460.343" stroke="#3DDEED" stroke-opacity="0.05" stroke-width="0.5" stroke-linecap="round" stroke-linejoin="round"/>
<path d="M2147.87 460.337C1890.32 459.057 1739.75 400.303 1537.29 511.197C1394.32 592.127 1191.27 769.46 1028.45 704.693C869.329 630.577 776.419 429.952 553.55 513.025C448.14 555.688 394.035 613.779 270.866 578.118C157.345 540.073 80.4086 454.651 -34.432 403.478C-220.381 327.895 -238.192 461.514 -565.871 460.337" stroke="#3DDEED" stroke-opacity="0.05" stroke-width="0.5" stroke-linecap="round" stroke-linejoin="round"/>
<path d="M2147.87 460.337C1972.69 459.57 1819.77 429.541 1684.28 453.251C1529.06 485.405 1418.62 599.322 1265.91 671.133C1070.22 758.528 1012.6 701.18 881.472 595.821C750.275 491.899 671.729 458.297 519.636 531.025C382.782 599.051 323.289 637.15 146.496 519.828C-13.9297 410.902 -79.0287 344.826 -249.258 402.53C-434.229 467.574 -421.625 460.796 -565.871 460.337" stroke="#3DDEED" stroke-opacity="0.05" stroke-width="0.5" stroke-linecap="round" stroke-linejoin="round"/>
<path d="M2147.87 460.337C1979.95 459.703 1915.61 443.581 1786.04 444.529C1480.88 449.961 1368.74 691.215 1107.6 707.144C901.979 711.508 824.779 388.834 530.936 528.713C430.153 578.921 370.101 629.249 248.252 583.055C70.0617 507.478 -19.5716 332.005 -226.654 393.585C-398.726 448.79 -364.709 460.868 -565.871 460.337" stroke="#3DDEED" stroke-opacity="0.05" stroke-width="0.5" stroke-linecap="round" stroke-linejoin="round"/>
<path d="M2147.87 460.337C1960.76 459.746 1904.67 443.267 1774.75 444.625C1483.81 450.891 1356.17 697.402 1096.31 701.627C1066.32 700.571 1046.86 696.949 1005.84 675.153C832.636 573.814 761.212 417.246 530.936 531.828C427.927 585.204 367.658 634.838 248.252 589.568C138.458 542.777 64.0835 454.295 -45.7364 401.595C-194.112 336.949 -266.877 427.67 -430.186 455.792C-475.626 462.317 -485.766 460.591 -565.876 460.337" stroke="#3DDEED" stroke-opacity="0.05" stroke-width="0.5" stroke-linecap="round" stroke-linejoin="round"/>
<path d="M2147.87 460.337C1920.58 459.752 1807.76 431.322 1684.28 451.663C1533.11 481.318 1427.47 584.643 1277.23 653.695C1072.15 743.046 1008.5 677.736 892.766 588.222C759.183 485.894 682.029 456.522 530.941 534.93C450.686 578.124 406.488 612.644 327.409 613.308C255.855 609.747 202.925 576.693 146.491 536.433C-12.9566 419.558 -77.7761 339.713 -249.263 398.136C-434.575 464.176 -417.593 460.711 -565.871 460.337" stroke="#3DDEED" stroke-opacity="0.05" stroke-width="0.5" stroke-linecap="round" stroke-linejoin="round"/>
<path d="M2147.87 460.337C1903.47 459.558 1803.08 432.445 1684.28 451.669C1533.19 480.841 1427.37 582.494 1277.23 649.011C1072.82 734.753 1009.94 670.795 892.766 581.214C756.849 478.705 680.466 455.943 530.941 537.067C449.801 582.542 405.174 617.183 327.409 619.006C255.685 616.441 202.936 583.212 146.491 542.137C-14.5612 421.441 -78.2057 338.506 -249.263 396.784C-426.335 460.065 -408.043 460.88 -565.871 460.337" stroke="#3DDEED" stroke-opacity="0.05" stroke-width="0.5" stroke-linecap="round" stroke-linejoin="round"/>
<path d="M2147.87 460.337C1874.79 459.914 1793.21 430.99 1672.98 453.836C1523.26 486.732 1415.23 588.711 1265.91 648.872C1070.65 723.073 1016.45 667.137 892.761 574.17C753.619 470.894 677.93 455.967 530.935 539.185C450.883 585.814 409.889 617.231 338.713 624.263C122.402 632.659 18.0167 317.072 -226.649 387.983C-305.04 412.9 -355.563 442.313 -441.485 456.383C-479.146 461.436 -483.375 460.542 -565.865 460.331" stroke="#3DDEED" stroke-opacity="0.05" stroke-width="0.5" stroke-linecap="round" stroke-linejoin="round"/>
<path d="M2147.87 460.337C1865.58 459.661 1796.92 434.086 1684.28 451.712C1528.68 480.745 1421.3 583.924 1265.91 643.983C1064.44 717.236 1014.96 656.375 881.472 558.875C740.378 458.466 665.259 460.096 519.636 548.137C365.82 642.691 300.69 670.252 146.496 553.557C-3.20497 436.507 -74.6497 338.494 -237.953 390.235C-414.674 450.462 -381.925 460.651 -565.871 460.337" stroke="#3DDEED" stroke-opacity="0.05" stroke-width="0.5" stroke-linecap="round" stroke-linejoin="round"/>
<path d="M2147.87 460.337C1737.03 459.438 1722.87 402.536 1492.07 525.333C1354.05 599.872 1245.26 674.549 1084.99 667.125C953.734 649.959 860.618 481.982 700.549 480.008C512.457 488.338 424.221 706.311 225.643 611.473C110.999 550.744 34.1194 441.414 -79.655 390.005C-147.347 363.272 -190.034 371.366 -260.573 396.808C-441.159 464.623 -431.159 460.452 -565.871 460.337" stroke="#3DDEED" stroke-opacity="0.05" stroke-width="0.5" stroke-linecap="round" stroke-linejoin="round"/>
<path d="M2147.87 460.337C2030.04 460.337 2016.94 463.615 1910.44 455.375C1815.39 447.595 1754.28 441.197 1684.27 451.754C1533.72 478.916 1427.32 573.687 1277.22 630.215C1066.23 704.838 1006.54 635.001 892.761 553.038C748.479 451.084 673.427 454.748 530.936 545.529C367.916 651.335 302.6 687.647 146.486 564.965C-10.9846 436.748 -76.0887 332.355 -249.268 391.382C-428.261 456.118 -400.372 460.337 -565.871 460.337" stroke="#3DDEED" stroke-opacity="0.05" stroke-width="0.5" stroke-linecap="round" stroke-linejoin="round"/>
</g>
<defs>
<clipPath id="clip0_5_51">
<rect width="2714" height="796" fill="white" transform="translate(-566)"/>
</clipPath>
</defs>
</svg>
