<svg width="104" height="28" viewBox="0 0 104 28" fill="none" xmlns="http://www.w3.org/2000/svg">
<mask id="path-1-outside-1_5_256" maskUnits="userSpaceOnUse" x="0" y="6" width="98" height="16" fill="black">
<rect fill="white" y="6" width="98" height="16"/>
<path d="M10.34 8.56H13.58V21H10.34V15.36H4.88V21H1.64V8.56H4.88V14.18H10.34V8.56ZM23.7348 19.2V13.1C23.7348 12.8467 23.6948 12.68 23.6148 12.6C23.5348 12.52 23.3682 12.48 23.1148 12.48H20.2548C19.9882 12.48 19.8148 12.52 19.7348 12.6C19.6682 12.68 19.6348 12.8467 19.6348 13.1V19.2C19.6348 19.4667 19.6682 19.64 19.7348 19.72C19.8148 19.7867 19.9882 19.82 20.2548 19.82H23.1148C23.3682 19.82 23.5348 19.7867 23.6148 19.72C23.6948 19.64 23.7348 19.4667 23.7348 19.2ZM18.1348 11.3H25.2348C26.2882 11.3 26.8148 11.8267 26.8148 12.88V19.42C26.8148 20.4733 26.2882 21 25.2348 21H18.1348C17.0815 21 16.5548 20.4733 16.5548 19.42V12.88C16.5548 11.8267 17.0815 11.3 18.1348 11.3ZM32.9041 21H29.8041V7.62H32.9041V21ZM43.0708 19.2V13.1C43.0708 12.8467 43.0308 12.68 42.9508 12.6C42.8708 12.52 42.7041 12.48 42.4508 12.48H39.5908C39.3241 12.48 39.1508 12.52 39.0708 12.6C39.0041 12.68 38.9708 12.8467 38.9708 13.1V19.2C38.9708 19.4667 39.0041 19.64 39.0708 19.72C39.1508 19.7867 39.3241 19.82 39.5908 19.82H42.4508C42.7041 19.82 42.8708 19.7867 42.9508 19.72C43.0308 19.64 43.0708 19.4667 43.0708 19.2ZM37.4708 11.3H44.5708C45.6241 11.3 46.1508 11.8267 46.1508 12.88V19.42C46.1508 20.4733 45.6241 21 44.5708 21H37.4708C36.4174 21 35.8908 20.4733 35.8908 19.42V12.88C35.8908 11.8267 36.4174 11.3 37.4708 11.3Z"/>
<path d="M59.96 12.54H56.72V10.36C56.72 10.0933 56.68 9.92667 56.6 9.86C56.5333 9.78 56.3667 9.74 56.1 9.74H52.84C52.5867 9.74 52.42 9.78 52.34 9.86C52.26 9.92667 52.22 10.0933 52.22 10.36V19.2C52.22 19.4667 52.26 19.64 52.34 19.72C52.42 19.7867 52.5867 19.82 52.84 19.82H56.12C56.3733 19.82 56.54 19.7867 56.62 19.72C56.7 19.64 56.74 19.4667 56.74 19.2V15.78H54.3V14.6H59.96V19.42C59.96 20.4733 59.4333 21 58.38 21H50.56C49.5067 21 48.98 20.4733 48.98 19.42V10.14C48.98 9.08667 49.5067 8.56 50.56 8.56H58.38C59.4333 8.56 59.96 9.08667 59.96 10.14V12.54ZM66.3291 19.82H69.0291C69.5091 19.82 69.7491 19.6067 69.7491 19.18V13.12C69.7491 12.6933 69.5091 12.48 69.0291 12.48H66.3291C66.0624 12.48 65.8891 12.52 65.8091 12.6C65.7424 12.68 65.7091 12.8467 65.7091 13.1V19.2C65.7091 19.4667 65.7424 19.64 65.8091 19.72C65.8891 19.7867 66.0624 19.82 66.3291 19.82ZM69.7491 11.3H72.8291V21H69.7491V20.34C69.5891 20.78 69.2091 21 68.6091 21H64.2091C63.1557 21 62.6291 20.4733 62.6291 19.42V12.88C62.6291 11.8267 63.1557 11.3 64.2091 11.3H68.6091C69.2091 11.3 69.5891 11.52 69.7491 11.96V11.3ZM84.1364 19.82V21H75.1564V19.82L80.6964 12.48H75.4564V11.3H84.0164V12.48L78.4164 19.82H84.1364ZM89.4005 15.44H93.7205V13.1C93.7205 12.8467 93.6805 12.68 93.6005 12.6C93.5338 12.52 93.3671 12.48 93.1005 12.48H90.0205C89.7538 12.48 89.5805 12.52 89.5005 12.6C89.4338 12.68 89.4005 12.8467 89.4005 13.1V15.44ZM87.9005 11.3H95.1405C96.1938 11.3 96.7205 11.8267 96.7205 12.88V16.62H89.4005V19.2C89.4005 19.4667 89.4338 19.64 89.5005 19.72C89.5805 19.7867 89.7538 19.82 90.0205 19.82H93.0605C93.3271 19.82 93.4938 19.7867 93.5605 19.72C93.6405 19.64 93.6805 19.4667 93.6805 19.2V18.02H96.6805V19.42C96.6805 20.4733 96.1538 21 95.1005 21H87.9005C86.8471 21 86.3205 20.4733 86.3205 19.42V12.88C86.3205 11.8267 86.8471 11.3 87.9005 11.3Z"/>
</mask>
<path d="M10.34 8.56H13.58V21H10.34V15.36H4.88V21H1.64V8.56H4.88V14.18H10.34V8.56ZM23.7348 19.2V13.1C23.7348 12.8467 23.6948 12.68 23.6148 12.6C23.5348 12.52 23.3682 12.48 23.1148 12.48H20.2548C19.9882 12.48 19.8148 12.52 19.7348 12.6C19.6682 12.68 19.6348 12.8467 19.6348 13.1V19.2C19.6348 19.4667 19.6682 19.64 19.7348 19.72C19.8148 19.7867 19.9882 19.82 20.2548 19.82H23.1148C23.3682 19.82 23.5348 19.7867 23.6148 19.72C23.6948 19.64 23.7348 19.4667 23.7348 19.2ZM18.1348 11.3H25.2348C26.2882 11.3 26.8148 11.8267 26.8148 12.88V19.42C26.8148 20.4733 26.2882 21 25.2348 21H18.1348C17.0815 21 16.5548 20.4733 16.5548 19.42V12.88C16.5548 11.8267 17.0815 11.3 18.1348 11.3ZM32.9041 21H29.8041V7.62H32.9041V21ZM43.0708 19.2V13.1C43.0708 12.8467 43.0308 12.68 42.9508 12.6C42.8708 12.52 42.7041 12.48 42.4508 12.48H39.5908C39.3241 12.48 39.1508 12.52 39.0708 12.6C39.0041 12.68 38.9708 12.8467 38.9708 13.1V19.2C38.9708 19.4667 39.0041 19.64 39.0708 19.72C39.1508 19.7867 39.3241 19.82 39.5908 19.82H42.4508C42.7041 19.82 42.8708 19.7867 42.9508 19.72C43.0308 19.64 43.0708 19.4667 43.0708 19.2ZM37.4708 11.3H44.5708C45.6241 11.3 46.1508 11.8267 46.1508 12.88V19.42C46.1508 20.4733 45.6241 21 44.5708 21H37.4708C36.4174 21 35.8908 20.4733 35.8908 19.42V12.88C35.8908 11.8267 36.4174 11.3 37.4708 11.3Z" fill="#3DDEED"/>
<path d="M59.96 12.54H56.72V10.36C56.72 10.0933 56.68 9.92667 56.6 9.86C56.5333 9.78 56.3667 9.74 56.1 9.74H52.84C52.5867 9.74 52.42 9.78 52.34 9.86C52.26 9.92667 52.22 10.0933 52.22 10.36V19.2C52.22 19.4667 52.26 19.64 52.34 19.72C52.42 19.7867 52.5867 19.82 52.84 19.82H56.12C56.3733 19.82 56.54 19.7867 56.62 19.72C56.7 19.64 56.74 19.4667 56.74 19.2V15.78H54.3V14.6H59.96V19.42C59.96 20.4733 59.4333 21 58.38 21H50.56C49.5067 21 48.98 20.4733 48.98 19.42V10.14C48.98 9.08667 49.5067 8.56 50.56 8.56H58.38C59.4333 8.56 59.96 9.08667 59.96 10.14V12.54ZM66.3291 19.82H69.0291C69.5091 19.82 69.7491 19.6067 69.7491 19.18V13.12C69.7491 12.6933 69.5091 12.48 69.0291 12.48H66.3291C66.0624 12.48 65.8891 12.52 65.8091 12.6C65.7424 12.68 65.7091 12.8467 65.7091 13.1V19.2C65.7091 19.4667 65.7424 19.64 65.8091 19.72C65.8891 19.7867 66.0624 19.82 66.3291 19.82ZM69.7491 11.3H72.8291V21H69.7491V20.34C69.5891 20.78 69.2091 21 68.6091 21H64.2091C63.1557 21 62.6291 20.4733 62.6291 19.42V12.88C62.6291 11.8267 63.1557 11.3 64.2091 11.3H68.6091C69.2091 11.3 69.5891 11.52 69.7491 11.96V11.3ZM84.1364 19.82V21H75.1564V19.82L80.6964 12.48H75.4564V11.3H84.0164V12.48L78.4164 19.82H84.1364ZM89.4005 15.44H93.7205V13.1C93.7205 12.8467 93.6805 12.68 93.6005 12.6C93.5338 12.52 93.3671 12.48 93.1005 12.48H90.0205C89.7538 12.48 89.5805 12.52 89.5005 12.6C89.4338 12.68 89.4005 12.8467 89.4005 13.1V15.44ZM87.9005 11.3H95.1405C96.1938 11.3 96.7205 11.8267 96.7205 12.88V16.62H89.4005V19.2C89.4005 19.4667 89.4338 19.64 89.5005 19.72C89.5805 19.7867 89.7538 19.82 90.0205 19.82H93.0605C93.3271 19.82 93.4938 19.7867 93.5605 19.72C93.6405 19.64 93.6805 19.4667 93.6805 19.2V18.02H96.6805V19.42C96.6805 20.4733 96.1538 21 95.1005 21H87.9005C86.8471 21 86.3205 20.4733 86.3205 19.42V12.88C86.3205 11.8267 86.8471 11.3 87.9005 11.3Z" fill="white"/>
<path d="M10.34 8.56V7.56H9.34V8.56H10.34ZM13.58 8.56H14.58V7.56H13.58V8.56ZM13.58 21V22H14.58V21H13.58ZM10.34 21H9.34V22H10.34V21ZM10.34 15.36H11.34V14.36H10.34V15.36ZM4.88 15.36V14.36H3.88V15.36H4.88ZM4.88 21V22H5.88V21H4.88ZM1.64 21H0.64V22H1.64V21ZM1.64 8.56V7.56H0.64V8.56H1.64ZM4.88 8.56H5.88V7.56H4.88V8.56ZM4.88 14.18H3.88V15.18H4.88V14.18ZM10.34 14.18V15.18H11.34V14.18H10.34ZM10.34 9.56H13.58V7.56H10.34V9.56ZM12.58 8.56V21H14.58V8.56H12.58ZM13.58 20H10.34V22H13.58V20ZM11.34 21V15.36H9.34V21H11.34ZM10.34 14.36H4.88V16.36H10.34V14.36ZM3.88 15.36V21H5.88V15.36H3.88ZM4.88 20H1.64V22H4.88V20ZM2.64 21V8.56H0.64V21H2.64ZM1.64 9.56H4.88V7.56H1.64V9.56ZM3.88 8.56V14.18H5.88V8.56H3.88ZM4.88 15.18H10.34V13.18H4.88V15.18ZM11.34 14.18V8.56H9.34V14.18H11.34ZM23.6148 12.6L22.9077 13.3071L22.9077 13.3071L23.6148 12.6ZM19.7348 12.6L19.0277 11.8929L18.9957 11.925L18.9666 11.9598L19.7348 12.6ZM19.7348 19.72L18.9666 20.3602L19.0248 20.43L19.0947 20.4882L19.7348 19.72ZM23.6148 19.72L24.255 20.4882L24.2899 20.4592L24.3219 20.4271L23.6148 19.72ZM24.7348 19.2V13.1H22.7348V19.2H24.7348ZM24.7348 13.1C24.7348 12.9283 24.722 12.7383 24.6772 12.5516C24.6347 12.3746 24.5431 12.114 24.3219 11.8929L22.9077 13.3071C22.8345 13.2339 22.7917 13.1623 22.7681 13.1137C22.7447 13.0656 22.7354 13.0305 22.7325 13.0184C22.7277 12.9984 22.7348 13.0183 22.7348 13.1H24.7348ZM24.322 11.8929C24.1008 11.6718 23.8403 11.5801 23.6632 11.5376C23.4765 11.4928 23.2865 11.48 23.1148 11.48V13.48C23.1965 13.48 23.2165 13.4872 23.1965 13.4824C23.1843 13.4795 23.1493 13.4701 23.1011 13.4467C23.0525 13.4231 22.981 13.3803 22.9077 13.3071L24.322 11.8929ZM23.1148 11.48H20.2548V13.48H23.1148V11.48ZM20.2548 11.48C20.0794 11.48 19.8872 11.4924 19.7 11.5356C19.5263 11.5757 19.2558 11.6648 19.0277 11.8929L20.442 13.3071C20.3642 13.3849 20.2886 13.4284 20.2404 13.4512C20.1925 13.474 20.1587 13.4823 20.1497 13.4844C20.1359 13.4876 20.1636 13.48 20.2548 13.48V11.48ZM18.9666 11.9598C18.7794 12.1844 18.7102 12.4341 18.6793 12.5889C18.6451 12.7599 18.6348 12.9362 18.6348 13.1H20.6348C20.6348 13.0105 20.6413 12.9768 20.6404 12.9811C20.6397 12.9849 20.6343 13.0114 20.6178 13.052C20.6017 13.0917 20.568 13.1622 20.5031 13.2402L18.9666 11.9598ZM18.6348 13.1V19.2H20.6348V13.1H18.6348ZM18.6348 19.2C18.6348 19.3681 18.6448 19.547 18.6778 19.7188C18.707 19.8703 18.774 20.1291 18.9666 20.3602L20.5031 19.0798C20.5719 19.1624 20.606 19.2367 20.6212 19.2753C20.6371 19.3154 20.6417 19.3404 20.6419 19.3412C20.6422 19.3431 20.6402 19.3329 20.6382 19.307C20.6363 19.2816 20.6348 19.2465 20.6348 19.2H18.6348ZM19.0947 20.4882C19.3258 20.6808 19.5845 20.7479 19.736 20.777C19.9078 20.81 20.0867 20.82 20.2548 20.82V18.82C20.2084 18.82 20.1732 18.8185 20.1479 18.8166C20.122 18.8146 20.1117 18.8126 20.1137 18.813C20.1144 18.8131 20.1395 18.8178 20.1795 18.8336C20.2182 18.8489 20.2925 18.883 20.375 18.9518L19.0947 20.4882ZM20.2548 20.82H23.1148V18.82H20.2548V20.82ZM23.1148 20.82C23.2787 20.82 23.455 20.8098 23.626 20.7756C23.7807 20.7446 24.0304 20.6754 24.255 20.4882L22.9747 18.9518C23.0526 18.8868 23.1232 18.8531 23.1629 18.837C23.2035 18.8206 23.2299 18.8152 23.2337 18.8144C23.2381 18.8136 23.2044 18.82 23.1148 18.82V20.82ZM24.3219 20.4271C24.55 20.1991 24.6392 19.9285 24.6792 19.7549C24.7224 19.5677 24.7348 19.3755 24.7348 19.2H22.7348C22.7348 19.2912 22.7273 19.319 22.7305 19.3051C22.7325 19.2962 22.7409 19.2624 22.7636 19.2144C22.7864 19.1663 22.83 19.0907 22.9077 19.0129L24.3219 20.4271ZM18.1348 12.3H25.2348V10.3H18.1348V12.3ZM25.2348 12.3C25.6074 12.3 25.7031 12.3925 25.7127 12.4021C25.7224 12.4118 25.8148 12.5075 25.8148 12.88H27.8148C27.8148 12.1992 27.644 11.5049 27.127 10.9879C26.6099 10.4709 25.9157 10.3 25.2348 10.3V12.3ZM25.8148 12.88V19.42H27.8148V12.88H25.8148ZM25.8148 19.42C25.8148 19.7925 25.7224 19.8882 25.7127 19.8979C25.7031 19.9075 25.6074 20 25.2348 20V22C25.9157 22 26.6099 21.8291 27.127 21.3121C27.644 20.7951 27.8148 20.1008 27.8148 19.42H25.8148ZM25.2348 20H18.1348V22H25.2348V20ZM18.1348 20C17.7623 20 17.6666 19.9075 17.657 19.8979C17.6473 19.8882 17.5548 19.7925 17.5548 19.42H15.5548C15.5548 20.1008 15.7257 20.7951 16.2427 21.3121C16.7598 21.8291 17.454 22 18.1348 22V20ZM17.5548 19.42V12.88H15.5548V19.42H17.5548ZM17.5548 12.88C17.5548 12.5075 17.6473 12.4118 17.657 12.4021C17.6666 12.3925 17.7623 12.3 18.1348 12.3V10.3C17.454 10.3 16.7598 10.4709 16.2427 10.9879C15.7257 11.5049 15.5548 12.1992 15.5548 12.88H17.5548ZM32.9041 21V22H33.9041V21H32.9041ZM29.8041 21H28.8041V22H29.8041V21ZM29.8041 7.62V6.62H28.8041V7.62H29.8041ZM32.9041 7.62H33.9041V6.62H32.9041V7.62ZM32.9041 20H29.8041V22H32.9041V20ZM30.8041 21V7.62H28.8041V21H30.8041ZM29.8041 8.62H32.9041V6.62H29.8041V8.62ZM31.9041 7.62V21H33.9041V7.62H31.9041ZM42.9508 12.6L42.2437 13.3071L42.2437 13.3071L42.9508 12.6ZM39.0708 12.6L38.3637 11.8929L38.3316 11.925L38.3026 11.9598L39.0708 12.6ZM39.0708 19.72L38.3026 20.3602L38.3608 20.43L38.4306 20.4882L39.0708 19.72ZM42.9508 19.72L43.591 20.4882L43.6258 20.4592L43.6579 20.4271L42.9508 19.72ZM44.0708 19.2V13.1H42.0708V19.2H44.0708ZM44.0708 13.1C44.0708 12.9283 44.058 12.7383 44.0132 12.5516C43.9707 12.3746 43.879 12.114 43.6579 11.8929L42.2437 13.3071C42.1704 13.2339 42.1277 13.1623 42.104 13.1137C42.0806 13.0656 42.0713 13.0305 42.0684 13.0184C42.0636 12.9984 42.0708 13.0183 42.0708 13.1H44.0708ZM43.6579 11.8929C43.4368 11.6718 43.1762 11.5801 42.9992 11.5376C42.8125 11.4928 42.6225 11.48 42.4508 11.48V13.48C42.5324 13.48 42.5524 13.4872 42.5324 13.4824C42.5203 13.4795 42.4852 13.4701 42.4371 13.4467C42.3885 13.4231 42.3169 13.3803 42.2437 13.3071L43.6579 11.8929ZM42.4508 11.48H39.5908V13.48H42.4508V11.48ZM39.5908 11.48C39.4153 11.48 39.2231 11.4924 39.0359 11.5356C38.8623 11.5757 38.5917 11.6648 38.3637 11.8929L39.7779 13.3071C39.7001 13.3849 39.6245 13.4284 39.5764 13.4512C39.5284 13.474 39.4946 13.4823 39.4856 13.4844C39.4718 13.4876 39.4996 13.48 39.5908 13.48V11.48ZM38.3026 11.9598C38.1154 12.1844 38.0462 12.4341 38.0152 12.5889C37.981 12.7599 37.9708 12.9362 37.9708 13.1H39.9708C39.9708 13.0105 39.9772 12.9768 39.9764 12.9811C39.9756 12.9849 39.9702 13.0114 39.9538 13.052C39.9377 13.0917 39.904 13.1622 39.839 13.2402L38.3026 11.9598ZM37.9708 13.1V19.2H39.9708V13.1H37.9708ZM37.9708 19.2C37.9708 19.3681 37.9807 19.547 38.0138 19.7188C38.0429 19.8703 38.11 20.1291 38.3026 20.3602L39.839 19.0798C39.9078 19.1624 39.9419 19.2367 39.9572 19.2753C39.973 19.3154 39.9776 19.3404 39.9778 19.3412C39.9782 19.3431 39.9761 19.3329 39.9742 19.307C39.9723 19.2816 39.9708 19.2465 39.9708 19.2H37.9708ZM38.4306 20.4882C38.6617 20.6808 38.9204 20.7479 39.0719 20.777C39.2437 20.81 39.4227 20.82 39.5908 20.82V18.82C39.5443 18.82 39.5092 18.8185 39.4838 18.8166C39.4579 18.8146 39.4476 18.8126 39.4496 18.813C39.4504 18.8131 39.4754 18.8178 39.5154 18.8336C39.5541 18.8489 39.6284 18.883 39.711 18.9518L38.4306 20.4882ZM39.5908 20.82H42.4508V18.82H39.5908V20.82ZM42.4508 20.82C42.6146 20.82 42.7909 20.8098 42.9619 20.7756C43.1167 20.7446 43.3663 20.6754 43.591 20.4882L42.3106 18.9518C42.3886 18.8868 42.4591 18.8531 42.4988 18.837C42.5394 18.8206 42.5659 18.8152 42.5697 18.8144C42.574 18.8136 42.5403 18.82 42.4508 18.82V20.82ZM43.6579 20.4271C43.8859 20.1991 43.9751 19.9285 44.0152 19.7549C44.0584 19.5677 44.0708 19.3755 44.0708 19.2H42.0708C42.0708 19.2912 42.0632 19.319 42.0664 19.3051C42.0685 19.2962 42.0768 19.2624 42.0995 19.2144C42.1223 19.1663 42.1659 19.0907 42.2437 19.0129L43.6579 20.4271ZM37.4708 12.3H44.5708V10.3H37.4708V12.3ZM44.5708 12.3C44.9433 12.3 45.039 12.3925 45.0487 12.4021C45.0583 12.4118 45.1508 12.5075 45.1508 12.88H47.1508C47.1508 12.1992 46.9799 11.5049 46.4629 10.9879C45.9459 10.4709 45.2516 10.3 44.5708 10.3V12.3ZM45.1508 12.88V19.42H47.1508V12.88H45.1508ZM45.1508 19.42C45.1508 19.7925 45.0583 19.8882 45.0487 19.8979C45.039 19.9075 44.9433 20 44.5708 20V22C45.2516 22 45.9459 21.8291 46.4629 21.3121C46.9799 20.7951 47.1508 20.1008 47.1508 19.42H45.1508ZM44.5708 20H37.4708V22H44.5708V20ZM37.4708 20C37.0983 20 37.0025 19.9075 36.9929 19.8979C36.9832 19.8882 36.8908 19.7925 36.8908 19.42H34.8908C34.8908 20.1008 35.0617 20.7951 35.5787 21.3121C36.0957 21.8291 36.79 22 37.4708 22V20ZM36.8908 19.42V12.88H34.8908V19.42H36.8908ZM36.8908 12.88C36.8908 12.5075 36.9832 12.4118 36.9929 12.4021C37.0025 12.3925 37.0983 12.3 37.4708 12.3V10.3C36.79 10.3 36.0957 10.4709 35.5787 10.9879C35.0617 11.5049 34.8908 12.1992 34.8908 12.88H36.8908ZM59.96 12.54V13.54H60.96V12.54H59.96ZM56.72 12.54H55.72V13.54H56.72V12.54ZM56.6 9.86L55.8318 10.5002L55.89 10.57L55.9598 10.6282L56.6 9.86ZM52.34 9.86L52.9802 10.6282L53.015 10.5992L53.0471 10.5671L52.34 9.86ZM52.34 19.72L51.6329 20.4271L51.665 20.4592L51.6998 20.4882L52.34 19.72ZM56.62 19.72L57.2602 20.4882L57.295 20.4592L57.3271 20.4271L56.62 19.72ZM56.74 15.78H57.74V14.78H56.74V15.78ZM54.3 15.78H53.3V16.78H54.3V15.78ZM54.3 14.6V13.6H53.3V14.6H54.3ZM59.96 14.6H60.96V13.6H59.96V14.6ZM59.96 11.54H56.72V13.54H59.96V11.54ZM57.72 12.54V10.36H55.72V12.54H57.72ZM57.72 10.36C57.72 10.1864 57.7079 9.99133 57.6624 9.80163C57.6218 9.63256 57.5221 9.32671 57.2402 9.09178L55.9598 10.6282C55.8538 10.5398 55.7942 10.4463 55.7632 10.3861C55.7325 10.3264 55.7209 10.2822 55.7176 10.2684C55.7121 10.2453 55.72 10.267 55.72 10.36H57.72ZM57.3682 9.21981C57.1333 8.9379 56.8274 8.83819 56.6584 8.79761C56.4687 8.75208 56.2736 8.74 56.1 8.74V10.74C56.193 10.74 56.2147 10.7479 56.1916 10.7424C56.1778 10.7391 56.1336 10.7275 56.0739 10.6968C56.0137 10.6658 55.9202 10.6062 55.8318 10.5002L57.3682 9.21981ZM56.1 8.74H52.84V10.74H56.1V8.74ZM52.84 8.74C52.6683 8.74 52.4783 8.75281 52.2916 8.79761C52.1146 8.84011 51.854 8.93176 51.6329 9.15289L53.0471 10.5671C52.9739 10.6403 52.9023 10.6831 52.8537 10.7067C52.8056 10.7302 52.7705 10.7395 52.7584 10.7424C52.7384 10.7472 52.7583 10.74 52.84 10.74V8.74ZM51.6998 9.09178C51.4179 9.32671 51.3182 9.63256 51.2776 9.80163C51.2321 9.99133 51.22 10.1864 51.22 10.36H53.22C53.22 10.267 53.2279 10.2453 53.2224 10.2684C53.2191 10.2822 53.2075 10.3264 53.1768 10.3861C53.1458 10.4463 53.0862 10.5398 52.9802 10.6282L51.6998 9.09178ZM51.22 10.36V19.2H53.22V10.36H51.22ZM51.22 19.2C51.22 19.3755 51.2324 19.5677 51.2756 19.7549C51.3157 19.9285 51.4048 20.1991 51.6329 20.4271L53.0471 19.0129C53.1249 19.0907 53.1684 19.1663 53.1912 19.2144C53.214 19.2624 53.2223 19.2962 53.2244 19.3051C53.2276 19.319 53.22 19.2912 53.22 19.2H51.22ZM51.6998 20.4882C51.9244 20.6754 52.1741 20.7446 52.3289 20.7756C52.4999 20.8098 52.6762 20.82 52.84 20.82V18.82C52.7505 18.82 52.7168 18.8136 52.7211 18.8144C52.7249 18.8152 52.7514 18.8206 52.792 18.837C52.8317 18.8531 52.9022 18.8868 52.9802 18.9518L51.6998 20.4882ZM52.84 20.82H56.12V18.82H52.84V20.82ZM56.12 20.82C56.2838 20.82 56.4601 20.8098 56.6311 20.7756C56.7859 20.7446 57.0356 20.6754 57.2602 20.4882L55.9798 18.9518C56.0578 18.8868 56.1283 18.8531 56.168 18.837C56.2086 18.8206 56.2351 18.8152 56.2389 18.8144C56.2432 18.8136 56.2095 18.82 56.12 18.82V20.82ZM57.3271 20.4271C57.5552 20.1991 57.6443 19.9285 57.6844 19.7549C57.7276 19.5677 57.74 19.3755 57.74 19.2H55.74C55.74 19.2912 55.7324 19.319 55.7356 19.3051C55.7377 19.2962 55.746 19.2624 55.7688 19.2144C55.7916 19.1663 55.8351 19.0907 55.9129 19.0129L57.3271 20.4271ZM57.74 19.2V15.78H55.74V19.2H57.74ZM56.74 14.78H54.3V16.78H56.74V14.78ZM55.3 15.78V14.6H53.3V15.78H55.3ZM54.3 15.6H59.96V13.6H54.3V15.6ZM58.96 14.6V19.42H60.96V14.6H58.96ZM58.96 19.42C58.96 19.7925 58.8675 19.8882 58.8579 19.8979C58.8482 19.9075 58.7525 20 58.38 20V22C59.0608 22 59.7551 21.8291 60.2721 21.3121C60.7891 20.7951 60.96 20.1008 60.96 19.42H58.96ZM58.38 20H50.56V22H58.38V20ZM50.56 20C50.1875 20 50.0918 19.9075 50.0821 19.8979C50.0725 19.8882 49.98 19.7925 49.98 19.42H47.98C47.98 20.1008 48.1509 20.7951 48.6679 21.3121C49.1849 21.8291 49.8792 22 50.56 22V20ZM49.98 19.42V10.14H47.98V19.42H49.98ZM49.98 10.14C49.98 9.76748 50.0725 9.67176 50.0821 9.66211C50.0918 9.65245 50.1875 9.56 50.56 9.56V7.56C49.8792 7.56 49.1849 7.73088 48.6679 8.24789C48.1509 8.76491 47.98 9.45919 47.98 10.14H49.98ZM50.56 9.56H58.38V7.56H50.56V9.56ZM58.38 9.56C58.7525 9.56 58.8482 9.65245 58.8579 9.66211C58.8675 9.67176 58.96 9.76748 58.96 10.14H60.96C60.96 9.45919 60.7891 8.76491 60.2721 8.24789C59.7551 7.73088 59.0608 7.56 58.38 7.56V9.56ZM58.96 10.14V12.54H60.96V10.14H58.96ZM65.8091 12.6L65.102 11.8929L65.0699 11.925L65.0408 11.9598L65.8091 12.6ZM65.8091 19.72L65.0408 20.3602L65.099 20.43L65.1689 20.4882L65.8091 19.72ZM69.7491 11.3V10.3H68.7491V11.3H69.7491ZM72.8291 11.3H73.8291V10.3H72.8291V11.3ZM72.8291 21V22H73.8291V21H72.8291ZM69.7491 21H68.7491V22H69.7491V21ZM69.7491 20.34H70.7491L68.8093 19.9983L69.7491 20.34ZM69.7491 11.96L68.8093 12.3017L70.7491 11.96H69.7491ZM66.3291 20.82H69.0291V18.82H66.3291V20.82ZM69.0291 20.82C69.3961 20.82 69.8581 20.741 70.2334 20.4074C70.6312 20.0539 70.7491 19.58 70.7491 19.18H68.7491C68.7491 19.1954 68.7466 19.1652 68.7677 19.1089C68.791 19.0467 68.8354 18.9742 68.9047 18.9126C69.04 18.7923 69.142 18.82 69.0291 18.82V20.82ZM70.7491 19.18V13.12H68.7491V19.18H70.7491ZM70.7491 13.12C70.7491 12.72 70.6312 12.2461 70.2334 11.8926C69.8581 11.559 69.3961 11.48 69.0291 11.48V13.48C69.142 13.48 69.04 13.5077 68.9047 13.3874C68.8354 13.3258 68.791 13.2533 68.7677 13.1911C68.7466 13.1348 68.7491 13.1046 68.7491 13.12H70.7491ZM69.0291 11.48H66.3291V13.48H69.0291V11.48ZM66.3291 11.48C66.1536 11.48 65.9614 11.4924 65.7742 11.5356C65.6005 11.5757 65.33 11.6648 65.102 11.8929L66.5162 13.3071C66.4384 13.3849 66.3628 13.4284 66.3146 13.4512C66.2667 13.474 66.2329 13.4823 66.2239 13.4844C66.2101 13.4876 66.2379 13.48 66.3291 13.48V11.48ZM65.0408 11.9598C64.8537 12.1844 64.7844 12.4341 64.7535 12.5889C64.7193 12.7599 64.7091 12.9362 64.7091 13.1H66.7091C66.7091 13.0105 66.7155 12.9768 66.7146 12.9811C66.7139 12.9849 66.7085 13.0114 66.6921 13.052C66.6759 13.0917 66.6423 13.1622 66.5773 13.2402L65.0408 11.9598ZM64.7091 13.1V19.2H66.7091V13.1H64.7091ZM64.7091 19.2C64.7091 19.3681 64.719 19.547 64.7521 19.7188C64.7812 19.8703 64.8483 20.1291 65.0408 20.3602L66.5773 19.0798C66.6461 19.1624 66.6802 19.2367 66.6955 19.2753C66.7113 19.3154 66.7159 19.3404 66.7161 19.3412C66.7165 19.3431 66.7144 19.3329 66.7125 19.307C66.7105 19.2816 66.7091 19.2465 66.7091 19.2H64.7091ZM65.1689 20.4882C65.4 20.6808 65.6587 20.7479 65.8102 20.777C65.982 20.81 66.1609 20.82 66.3291 20.82V18.82C66.2826 18.82 66.2474 18.8185 66.2221 18.8166C66.1962 18.8146 66.1859 18.8126 66.1879 18.813C66.1887 18.8131 66.2137 18.8178 66.2537 18.8336C66.2924 18.8489 66.3667 18.883 66.4492 18.9518L65.1689 20.4882ZM69.7491 12.3H72.8291V10.3H69.7491V12.3ZM71.8291 11.3V21H73.8291V11.3H71.8291ZM72.8291 20H69.7491V22H72.8291V20ZM70.7491 21V20.34H68.7491V21H70.7491ZM68.8093 19.9983C68.804 20.0128 68.8034 20.0083 68.8139 19.9955C68.8249 19.982 68.837 19.9731 68.843 19.9696C68.8511 19.9649 68.7949 20 68.6091 20V22C69.0232 22 69.457 21.9251 69.8451 21.7004C70.2524 21.4646 70.5344 21.1066 70.6889 20.6817L68.8093 19.9983ZM68.6091 20H64.2091V22H68.6091V20ZM64.2091 20C63.8365 20 63.7408 19.9075 63.7312 19.8979C63.7215 19.8882 63.6291 19.7925 63.6291 19.42H61.6291C61.6291 20.1008 61.7999 20.7951 62.317 21.3121C62.834 21.8291 63.5283 22 64.2091 22V20ZM63.6291 19.42V12.88H61.6291V19.42H63.6291ZM63.6291 12.88C63.6291 12.5075 63.7215 12.4118 63.7312 12.4021C63.7408 12.3925 63.8365 12.3 64.2091 12.3V10.3C63.5283 10.3 62.834 10.4709 62.317 10.9879C61.7999 11.5049 61.6291 12.1992 61.6291 12.88H63.6291ZM64.2091 12.3H68.6091V10.3H64.2091V12.3ZM68.6091 12.3C68.7949 12.3 68.8511 12.3351 68.843 12.3304C68.837 12.3269 68.8249 12.318 68.8139 12.3045C68.8034 12.2917 68.804 12.2872 68.8093 12.3017L70.6889 11.6183C70.5344 11.1934 70.2524 10.8354 69.8451 10.5996C69.457 10.3749 69.0232 10.3 68.6091 10.3V12.3ZM70.7491 11.96V11.3H68.7491V11.96H70.7491ZM84.1364 19.82H85.1364V18.82H84.1364V19.82ZM84.1364 21V22H85.1364V21H84.1364ZM75.1564 21H74.1564V22H75.1564V21ZM75.1564 19.82L74.3582 19.2176L74.1564 19.485V19.82H75.1564ZM80.6964 12.48L81.4946 13.0824L82.704 11.48H80.6964V12.48ZM75.4564 12.48H74.4564V13.48H75.4564V12.48ZM75.4564 11.3V10.3H74.4564V11.3H75.4564ZM84.0164 11.3H85.0164V10.3H84.0164V11.3ZM84.0164 12.48L84.8114 13.0866L85.0164 12.8179V12.48H84.0164ZM78.4164 19.82L77.6214 19.2134L76.3957 20.82H78.4164V19.82ZM83.1364 19.82V21H85.1364V19.82H83.1364ZM84.1364 20H75.1564V22H84.1364V20ZM76.1564 21V19.82H74.1564V21H76.1564ZM75.9546 20.4224L81.4946 13.0824L79.8982 11.8776L74.3582 19.2176L75.9546 20.4224ZM80.6964 11.48H75.4564V13.48H80.6964V11.48ZM76.4564 12.48V11.3H74.4564V12.48H76.4564ZM75.4564 12.3H84.0164V10.3H75.4564V12.3ZM83.0164 11.3V12.48H85.0164V11.3H83.0164ZM83.2214 11.8734L77.6214 19.2134L79.2114 20.4266L84.8114 13.0866L83.2214 11.8734ZM78.4164 20.82H84.1364V18.82H78.4164V20.82ZM89.4005 15.44H88.4005V16.44H89.4005V15.44ZM93.7205 15.44V16.44H94.7205V15.44H93.7205ZM93.6005 12.6L92.8322 13.2402L92.8613 13.275L92.8934 13.3071L93.6005 12.6ZM89.5005 12.6L88.7934 11.8929L88.7613 11.925L88.7322 11.9598L89.5005 12.6ZM96.7205 16.62V17.62H97.7205V16.62H96.7205ZM89.4005 16.62V15.62H88.4005V16.62H89.4005ZM89.5005 19.72L88.7322 20.3602L88.7904 20.43L88.8603 20.4882L89.5005 19.72ZM93.5605 19.72L92.8534 19.0129L92.8534 19.0129L93.5605 19.72ZM93.6805 18.02V17.02H92.6805V18.02H93.6805ZM96.6805 18.02H97.6805V17.02H96.6805V18.02ZM89.4005 16.44H93.7205V14.44H89.4005V16.44ZM94.7205 15.44V13.1H92.7205V15.44H94.7205ZM94.7205 13.1C94.7205 12.9283 94.7077 12.7383 94.6629 12.5516C94.6204 12.3746 94.5287 12.114 94.3076 11.8929L92.8934 13.3071C92.8201 13.2339 92.7774 13.1623 92.7537 13.1137C92.7303 13.0656 92.721 13.0305 92.7181 13.0184C92.7133 12.9984 92.7205 13.0183 92.7205 13.1H94.7205ZM94.3687 11.9598C94.1338 11.6779 93.8279 11.5782 93.6588 11.5376C93.4691 11.4921 93.2741 11.48 93.1005 11.48V13.48C93.1935 13.48 93.2151 13.4879 93.1921 13.4824C93.1783 13.4791 93.1341 13.4675 93.0744 13.4368C93.0141 13.4058 92.9206 13.3462 92.8322 13.2402L94.3687 11.9598ZM93.1005 11.48H90.0205V13.48H93.1005V11.48ZM90.0205 11.48C89.845 11.48 89.6528 11.4924 89.4656 11.5356C89.292 11.5757 89.0214 11.6648 88.7934 11.8929L90.2076 13.3071C90.1298 13.3849 90.0542 13.4284 90.0061 13.4512C89.9581 13.474 89.9243 13.4823 89.9153 13.4844C89.9015 13.4876 89.9293 13.48 90.0205 13.48V11.48ZM88.7322 11.9598C88.5451 12.1844 88.4758 12.4341 88.4449 12.5889C88.4107 12.7599 88.4005 12.9362 88.4005 13.1H90.4005C90.4005 13.0105 90.4069 12.9768 90.406 12.9811C90.4053 12.9849 90.3999 13.0114 90.3835 13.052C90.3674 13.0917 90.3337 13.1622 90.2687 13.2402L88.7322 11.9598ZM88.4005 13.1V15.44H90.4005V13.1H88.4005ZM87.9005 12.3H95.1405V10.3H87.9005V12.3ZM95.1405 12.3C95.513 12.3 95.6087 12.3925 95.6184 12.4021C95.628 12.4118 95.7205 12.5075 95.7205 12.88H97.7205C97.7205 12.1992 97.5496 11.5049 97.0326 10.9879C96.5156 10.4709 95.8213 10.3 95.1405 10.3V12.3ZM95.7205 12.88V16.62H97.7205V12.88H95.7205ZM96.7205 15.62H89.4005V17.62H96.7205V15.62ZM88.4005 16.62V19.2H90.4005V16.62H88.4005ZM88.4005 19.2C88.4005 19.3681 88.4104 19.547 88.4435 19.7188C88.4726 19.8703 88.5397 20.1291 88.7322 20.3602L90.2687 19.0798C90.3375 19.1624 90.3716 19.2367 90.3869 19.2753C90.4027 19.3154 90.4073 19.3404 90.4075 19.3412C90.4079 19.3431 90.4058 19.3329 90.4039 19.307C90.4019 19.2816 90.4005 19.2465 90.4005 19.2H88.4005ZM88.8603 20.4882C89.0914 20.6808 89.3501 20.7479 89.5016 20.777C89.6734 20.81 89.8524 20.82 90.0205 20.82V18.82C89.974 18.82 89.9388 18.8185 89.9135 18.8166C89.8876 18.8146 89.8773 18.8126 89.8793 18.813C89.8801 18.8131 89.9051 18.8178 89.9451 18.8336C89.9838 18.8489 90.0581 18.883 90.1407 18.9518L88.8603 20.4882ZM90.0205 20.82H93.0605V18.82H90.0205V20.82ZM93.0605 20.82C93.227 20.82 93.4081 20.8103 93.5816 20.7756C93.7236 20.7472 94.0217 20.673 94.2676 20.4271L92.8534 19.0129C92.9519 18.9143 93.0481 18.8659 93.0978 18.8446C93.1495 18.8224 93.1844 18.8154 93.1894 18.8144C93.1962 18.813 93.1606 18.82 93.0605 18.82V20.82ZM94.2676 20.4271C94.4956 20.1991 94.5848 19.9285 94.6249 19.7549C94.6681 19.5677 94.6805 19.3755 94.6805 19.2H92.6805C92.6805 19.2912 92.6729 19.319 92.6761 19.3051C92.6782 19.2962 92.6865 19.2624 92.7092 19.2144C92.732 19.1663 92.7756 19.0907 92.8534 19.0129L94.2676 20.4271ZM94.6805 19.2V18.02H92.6805V19.2H94.6805ZM93.6805 19.02H96.6805V17.02H93.6805V19.02ZM95.6805 18.02V19.42H97.6805V18.02H95.6805ZM95.6805 19.42C95.6805 19.7925 95.588 19.8882 95.5784 19.8979C95.5687 19.9075 95.473 20 95.1005 20V22C95.7813 22 96.4756 21.8291 96.9926 21.3121C97.5096 20.7951 97.6805 20.1008 97.6805 19.42H95.6805ZM95.1005 20H87.9005V22H95.1005V20ZM87.9005 20C87.5279 20 87.4322 19.9075 87.4226 19.8979C87.4129 19.8882 87.3205 19.7925 87.3205 19.42H85.3205C85.3205 20.1008 85.4913 20.7951 86.0084 21.3121C86.5254 21.8291 87.2197 22 87.9005 22V20ZM87.3205 19.42V12.88H85.3205V19.42H87.3205ZM87.3205 12.88C87.3205 12.5075 87.4129 12.4118 87.4226 12.4021C87.4322 12.3925 87.5279 12.3 87.9005 12.3V10.3C87.2197 10.3 86.5254 10.4709 86.0084 10.9879C85.4913 11.5049 85.3205 12.1992 85.3205 12.88H87.3205Z" fill="black" mask="url(#path-1-outside-1_5_256)"/>
<rect x="100.5" y="17.5" width="3" height="3" fill="#3DDEED" stroke="black"/>
</svg>
